<?xml version="1.0" encoding="UTF-8"?>
<svg version="1.1" xmlns="http://www.w3.org/2000/svg" width="540" height="540">
<path d="M0 0 C178.2 0 356.4 0 540 0 C540 178.2 540 356.4 540 540 C361.8 540 183.6 540 0 540 C0 361.8 0 183.6 0 0 Z " fill="#715F5E" transform="translate(0,0)"/>
<path d="M0 0 C0.99 0.33 1.98 0.66 3 1 C3.11214844 1.97259766 3.11214844 1.97259766 3.2265625 2.96484375 C8.49930296 42.30362309 22.35197496 81.77331857 37.80712891 118.17675781 C38.825138 120.58614323 39.81639588 123.00332765 40.79296875 125.4296875 C45.74832375 137.53707012 52.41441172 148.72294229 59 160 C59.52851563 160.91491211 60.05703125 161.82982422 60.6015625 162.77246094 C66.77171128 173.44232249 73.17259532 183.46761608 81 193 C81.76054687 193.95132813 82.52109375 194.90265625 83.3046875 195.8828125 C89.20389034 203.21088801 95.28047853 210.46633424 102.0625 217 C104 219 104 219 104 221 C70.68665811 237.01280843 38.46131243 247.21382656 1.125 247.25 C0.39867371 247.25100708 -0.32765259 247.25201416 -1.07598877 247.25305176 C-13.28211219 247.24165888 -25.00767256 246.31144063 -37 244 C-38.56233614 243.72952056 -40.12483668 243.45998901 -41.6875 243.19140625 C-63.10515102 239.30641663 -82.67308746 230.77018255 -102 221 C-100.42574218 217.66470067 -98.77467441 215.6458999 -96.0625 213.125 C-90.53615791 207.73192983 -85.95346772 201.75148307 -81.26953125 195.63671875 C-79.5393451 193.40610953 -77.73604455 191.23815873 -75.9375 189.0625 C-67.48193157 178.49736235 -60.44675991 166.87310512 -54 155 C-53.61344238 154.28859863 -53.22688477 153.57719727 -52.82861328 152.84423828 C-32.94849107 116.05694351 -17.88820256 76.66010309 -8 36 C-7.77231934 35.06494629 -7.54463867 34.12989258 -7.31005859 33.16650391 C-4.91730708 23.22240772 -2.67255928 13.31888322 -1.359375 3.16796875 C-1 1 -1 1 0 0 Z " fill="#FCD301" transform="translate(268,238)"/>
<path d="M0 0 C1.35707004 49.58525139 -6.08849591 100.6573099 -18 148.6875 C-18.16140472 149.34455933 -18.32280945 150.00161865 -18.48910522 150.67858887 C-21.64680832 163.46667456 -25.63423558 175.92034646 -30.4375 188.1875 C-30.87364624 189.30777588 -30.87364624 189.30777588 -31.31860352 190.45068359 C-33.84699358 196.83234834 -36.75907677 202.94552804 -40 209 C-44.27959101 207.47858576 -46.28261202 204.28475028 -48.75 200.6875 C-49.18900635 200.05505371 -49.6280127 199.42260742 -50.08032227 198.77099609 C-51.39901588 196.85528913 -52.70068542 194.92888462 -54 193 C-54.67417969 192.01902344 -55.34835938 191.03804687 -56.04296875 190.02734375 C-77.0950998 157.77634711 -87.80285469 116.92145312 -92 79 C-92.10296387 78.09701172 -92.20592773 77.19402344 -92.31201172 76.26367188 C-94.22832617 58.838228 -94.22537894 41.50327537 -94 24 C-88.42135863 20.78261124 -82.85034158 17.9023544 -76.875 15.5 C-75.77333496 15.05454834 -75.77333496 15.05454834 -74.64941406 14.60009766 C-50.5143848 4.96584319 -26.03217721 -0.62311062 0 0 Z " fill="#FCD301" transform="translate(264,60)"/>
<path d="M0 0 C9.11001346 -0.18829066 17.698966 0.04699833 26.6875 1.6875 C28.22458618 1.95977417 28.22458618 1.95977417 29.79272461 2.23754883 C52.12670621 6.31069424 73.17781177 12.70415333 93 24 C93.56100469 54.2741146 91.17010063 83.27725691 85 113 C84.83387207 113.81887695 84.66774414 114.63775391 84.49658203 115.48144531 C77.49747542 149.53635769 62.88231544 181.97184325 41 209 C38 208 38 208 36.88085938 205.99389648 C36.53861328 205.12837158 36.19636719 204.26284668 35.84375 203.37109375 C35.46089844 202.41783203 35.07804687 201.46457031 34.68359375 200.48242188 C34.09771484 198.97518555 34.09771484 198.97518555 33.5 197.4375 C32.91412109 195.97086914 32.91412109 195.97086914 32.31640625 194.47460938 C31.19489236 191.6557201 30.0937274 188.82976964 29 186 C28.73098877 185.31365479 28.46197754 184.62730957 28.18481445 183.92016602 C18.65519729 159.18663767 12.62424056 133.02647659 8.46777344 106.90136719 C8.00259938 104.01612266 7.50736219 101.13728313 7.0078125 98.2578125 C1.50158662 65.68153034 -0.79423723 33.00972098 0 0 Z " fill="#FCD302" transform="translate(275,60)"/>
<path d="M0 0 C33.62874932 11.85072162 64.92227122 53.03979536 79.984375 84.06640625 C85.41319811 95.49204974 90.52162619 106.81897665 94 119 C94.42984394 120.40009182 94.86089703 121.79981282 95.29296875 123.19921875 C98.42764708 133.61307531 100.35018732 144.0251857 101.7175293 154.80810547 C101.9725923 156.78732384 102.26715109 158.76135476 102.56640625 160.734375 C103.29643923 166.67050178 103.19067551 172.65345944 103.1875 178.625 C103.18814453 179.86797852 103.18878906 181.11095703 103.18945312 182.39160156 C103.14119306 190.76033551 102.72877709 198.78830883 101 207 C95.74207101 205.71413004 91.42547478 203.79610775 86.8125 200.9375 C86.15813965 200.53466797 85.5037793 200.13183594 84.82958984 199.71679688 C66.37886199 188.19800793 50.92659391 173.21223125 39 155 C38.6090918 154.4107373 38.21818359 153.82147461 37.81542969 153.21435547 C8.79879512 108.93667084 -0.95417322 52.02446014 0 0 Z " fill="#FCD302" transform="translate(379,91)"/>
<path d="M0 0 C-0.78257129 29.97629799 -0.78257129 29.97629799 -2.66113281 42.66992188 C-3.05767157 45.39655437 -3.41345353 48.12768065 -3.7734375 50.859375 C-7.66522399 79.2326606 -14.65626602 108.46418507 -28 134 C-28.3805957 134.72848145 -28.76119141 135.45696289 -29.15332031 136.20751953 C-34.13808174 145.64451625 -39.39065361 154.58933584 -46 163 C-46.5878125 163.79019531 -47.175625 164.58039063 -47.78125 165.39453125 C-61.7149534 183.66775668 -79.24340584 197.30401311 -100 207 C-100.66 207 -101.32 207 -102 207 C-102.96887901 202.09929736 -103.1748916 197.40981329 -103.203125 192.4375 C-103.21013931 191.61739441 -103.21715363 190.79728882 -103.22438049 189.95233154 C-103.24188233 187.30149856 -103.248238 184.65088874 -103.25 182 C-103.25101212 180.6450946 -103.25101212 180.6450946 -103.25204468 179.26281738 C-103.2358474 165.64075685 -102.81961403 152.37459847 -100 139 C-99.82839355 138.17274414 -99.65678711 137.34548828 -99.47998047 136.49316406 C-90.64698484 95.30409241 -70.33611752 59.98688953 -41 30 C-40.37319336 29.34547852 -39.74638672 28.69095703 -39.10058594 28.01660156 C-38.47700195 27.37432617 -37.85341797 26.73205078 -37.2109375 26.0703125 C-36.6442334 25.48266113 -36.0775293 24.89500977 -35.49365234 24.28955078 C-34 23 -34 23 -32 23 C-32 22.34 -32 21.68 -32 21 C-26.11417693 15.23522214 -18.81113124 10.67860062 -12.0625 6 C-11.22162842 5.41178467 -10.38075684 4.82356934 -9.5144043 4.2175293 C-8.71687744 3.67136963 -7.91935059 3.12520996 -7.09765625 2.5625 C-6.38101807 2.06878906 -5.66437988 1.57507813 -4.92602539 1.06640625 C-3 0 -3 0 0 0 Z " fill="#FCD302" transform="translate(160,91)"/>
<path d="M0 0 C3.33742301 2.65432473 4.29724092 6.10731614 5.625 10 C13.81485143 32.65598901 25.64212776 52.3063369 42 70 C42.87011719 70.95261719 43.74023438 71.90523438 44.63671875 72.88671875 C58.43927911 87.34949126 76.01900363 99.4752825 95 106 C94.46022015 111.14107394 93.25891664 115.46226871 91.125 120.1875 C90.67241821 121.20203247 90.67241821 121.20203247 90.21069336 122.23706055 C84.13210534 135.53425347 77.14224686 148.55345732 68 160 C67.3090625 160.88042969 66.618125 161.76085937 65.90625 162.66796875 C62.3413141 167.17069562 58.69923826 171.60715457 55 176 C50.2333839 174.64933967 46.71982003 172.67303472 42.6875 169.8125 C42.11990967 169.4103125 41.55231934 169.008125 40.9675293 168.59375 C22.33979024 155.30893256 4.86888815 139.24853704 -9 121 C-9.91479543 119.83679175 -10.83020206 118.67406401 -11.74609375 117.51171875 C-20.02905959 106.86784169 -27.10459582 95.57828729 -34 84 C-34.38542969 83.36529785 -34.77085937 82.7305957 -35.16796875 82.07666016 C-36.08666555 80.56089844 -36.98230519 79.03121957 -37.875 77.5 C-38.32617188 76.7265625 -38.77734375 75.953125 -39.2421875 75.15625 C-40.2378739 72.32316291 -39.97061715 70.8264731 -39 68 C-37.5390625 66.10546875 -37.5390625 66.10546875 -35.625 64.1875 C-21.20091215 48.62602888 -11.80709458 29.50421378 -4 10 C-3.54109375 8.86691406 -3.0821875 7.73382813 -2.609375 6.56640625 C-1.72919338 4.38144835 -0.85729956 2.19401006 0 0 Z " fill="#FCD302" transform="translate(373,238)"/>
<path d="M0 0 C2.92361496 3.39516576 4.24891586 7.07971674 5.6875 11.25 C13.04570625 31.61955444 24.29094189 51.90985011 39.8828125 67.0859375 C41 69 41 69 40.99609375 71.65625 C39.6304101 76.24066256 37.38883068 80.03768492 34.9375 84.125 C34.43943848 84.96812744 33.94137695 85.81125488 33.42822266 86.67993164 C22.49044731 105.05673111 9.71532477 122.4572104 -5 138 C-5.5892627 138.62326172 -6.17852539 139.24652344 -6.78564453 139.88867188 C-16.76886678 150.35978666 -27.12566688 159.71910021 -39 168 C-39.96123779 168.67240723 -39.96123779 168.67240723 -40.94189453 169.35839844 C-48.4377572 174.51705151 -48.4377572 174.51705151 -52 176 C-56.44072032 175.13436251 -58.97559094 170.70900314 -61.625 167.3125 C-62.15206543 166.64186523 -62.67913086 165.97123047 -63.22216797 165.28027344 C-95.26248478 124.0070198 -95.26248478 124.0070198 -94 106 C-92.83984375 105.5153125 -91.6796875 105.030625 -90.484375 104.53125 C-80.98094099 100.48588998 -72.33810343 96.17637291 -64 90 C-62.96746094 89.26265625 -61.93492188 88.5253125 -60.87109375 87.765625 C-48.7021556 78.9037834 -37.90494538 68.13795102 -29 56 C-28.32066406 55.11054688 -27.64132813 54.22109375 -26.94140625 53.3046875 C-16.09875263 38.49992337 -8.10584485 21.76999526 -2.20703125 4.4453125 C-1 1 -1 1 0 0 Z " fill="#FCD302" transform="translate(164,238)"/>
<path d="M0 0 C-8.15255227 3.57324632 -16.01802048 6.19076771 -25 6 C-25 6.66 -25 7.32 -25 8 C-25.85549438 8.03758423 -25.85549438 8.03758423 -26.72827148 8.07592773 C-29.29826157 8.19156549 -31.86785527 8.31443624 -34.4375 8.4375 C-35.33533203 8.47681641 -36.23316406 8.51613281 -37.15820312 8.55664062 C-38.43920898 8.61948242 -38.43920898 8.61948242 -39.74609375 8.68359375 C-40.53685303 8.72025146 -41.3276123 8.75690918 -42.14233398 8.79467773 C-44.01401441 8.80563257 -44.01401441 8.80563257 -45 10 C-47.65456193 10.10095564 -50.28255176 10.13970998 -52.9375 10.1328125 C-54.13040649 10.13424759 -54.13040649 10.13424759 -55.34741211 10.13571167 C-57.0320646 10.13639343 -58.71671971 10.13453943 -60.40136719 10.13037109 C-62.98899197 10.12502275 -65.57644316 10.13031619 -68.1640625 10.13671875 C-69.79687539 10.13605797 -71.42968816 10.1347768 -73.0625 10.1328125 C-73.84165771 10.13483673 -74.62081543 10.13686096 -75.42358398 10.13894653 C-80.88504895 10.11495105 -80.88504895 10.11495105 -82 9 C-83.68183948 8.76712992 -85.3712416 8.58735834 -87.0625 8.4375 C-87.98160156 8.35371094 -88.90070313 8.26992188 -89.84765625 8.18359375 C-90.55792969 8.12300781 -91.26820313 8.06242187 -92 8 C-92 7.34 -92 6.68 -92 6 C-90.98341309 6.10501831 -90.98341309 6.10501831 -89.94628906 6.2121582 C-81.9162003 6.96874187 -73.93269421 7.18623003 -65.87451172 7.18530273 C-63.76639394 7.18748304 -61.65880681 7.20570442 -59.55078125 7.22460938 C-45.45610634 7.28483031 -31.96558082 5.43893066 -18.1875 2.4375 C-17.14013672 2.21642578 -16.09277344 1.99535156 -15.01367188 1.76757812 C-2.73624959 -0.84918091 -2.73624959 -0.84918091 0 0 Z " fill="#7F6836" transform="translate(332,477)"/>
<path d="M0 0 C4.63932879 -0.34794966 7.77080005 0.54998637 11.96875 2.26953125 C14.91131558 3.3277231 17.90817931 3.62140971 21 4 C21.33 4.33 21.66 4.66 22 5 C23.78374052 5.3549584 25.57788957 5.65800082 27.375 5.9375 C33.54418481 6.90601318 33.54418481 6.90601318 36.36553955 7.48776245 C43.0936034 8.84400117 49.48407815 9.2810037 56.3359375 9.23046875 C57.89775253 9.22978142 57.89775253 9.22978142 59.49111938 9.2290802 C61.67768504 9.22608047 63.864249 9.21826343 66.05078125 9.20581055 C69.35945395 9.18758563 72.66784484 9.1853012 75.9765625 9.18554688 C86.35689338 9.1676629 96.66808263 9.10817529 107 8 C107 8.33 107 8.66 107 9 C105.39717783 9.31932434 103.7926221 9.62994514 102.1875 9.9375 C101.29417969 10.11152344 100.40085937 10.28554688 99.48046875 10.46484375 C89.39903107 12.0149638 79.30737637 12.24013476 69.125 12.25 C68.39867371 12.25100708 67.67234741 12.25201416 66.92401123 12.25305176 C54.7264833 12.24166691 42.97983937 11.35067734 31 9 C29.75210693 8.76724365 29.75210693 8.76724365 28.47900391 8.52978516 C18.72340675 6.69956125 9.30997907 4.493565 0 1 C0 0.67 0 0.34 0 0 Z " fill="#EAC62D" transform="translate(200,473)"/>
<path d="M0 0 C0.33 0.66 0.66 1.32 1 2 C0.01 3.485 0.01 3.485 -1 5 C-1.07905064 7.33199388 -1.08798769 9.66832622 -1 12 C-1.99 12.495 -1.99 12.495 -3 13 C-3.4125 14.2375 -3.825 15.475 -4.25 16.75 C-5.84018972 21.33106468 -8.09406363 23.22244525 -12 26 C-12.66 25.34 -13.32 24.68 -14 24 C-17.52381687 26.54604597 -17.52381687 26.54604597 -20 30 C-20.66 29.67 -21.32 29.34 -22 29 C-21.33355469 28.16339844 -20.66710937 27.32679688 -19.98046875 26.46484375 C-13.10499742 17.79473229 -6.48938201 8.96212525 0 0 Z " fill="#756250" transform="translate(187,340)"/>
<path d="M0 0 C2.56695636 0.39491636 4.67123994 0.83561997 7 2 C7 2.66 7 3.32 7 4 C8.0725 4.020625 9.145 4.04125 10.25 4.0625 C14 5 14 5 15.35546875 6.625 C16.32906795 8.36834009 17.17372659 10.1821985 18 12 C14.24868988 10.23576999 10.76463789 8.06102752 7.25 5.875 C6.64800781 5.50246094 6.04601562 5.12992187 5.42578125 4.74609375 C3.94957657 3.83225276 2.47465846 2.91633402 1 2 C1.24084331 7.22498324 1.48948405 12.44952369 1.74462891 17.67382812 C1.82998291 19.44228644 1.9133916 21.21083998 1.99462891 22.97949219 C2.55098002 35.05437194 3.5138445 47.00316928 5 59 C4.34 59 3.68 59 3 59 C2.77213542 56.94921875 2.54427083 54.8984375 2.31640625 52.84765625 C2.18113386 50.98859771 2.18113386 50.98859771 1 50 C0.85457866 48.34095995 0.77280138 46.67624262 0.71875 45.01171875 C0.68136719 43.99529297 0.64398438 42.97886719 0.60546875 41.93164062 C0.57066406 40.86107422 0.53585937 39.79050781 0.5 38.6875 C0.43096704 36.58710834 0.35819679 34.48683538 0.28125 32.38671875 C0.25095703 31.45045654 0.22066406 30.51419434 0.18945312 29.54956055 C0.07882174 27.06786445 0.07882174 27.06786445 -0.50927734 24.98632812 C-1.11015385 22.55412352 -1.12965399 20.33650672 -1.1328125 17.83203125 C-1.13410156 16.85685547 -1.13539063 15.88167969 -1.13671875 14.87695312 C-1.13285156 13.86568359 -1.12898438 12.85441406 -1.125 11.8125 C-1.12886719 10.78962891 -1.13273437 9.76675781 -1.13671875 8.71289062 C-1.13542969 7.74158203 -1.13414062 6.77027344 -1.1328125 5.76953125 C-1.13168457 4.87854736 -1.13055664 3.98756348 -1.12939453 3.06958008 C-1 1 -1 1 0 0 Z " fill="#8B722F" transform="translate(378,89)"/>
<path d="M0 0 C0 3.38601598 -0.91499972 5.81281168 -2 9 C-2 9.66 -2 10.32 -2 11 C-3.32 10.67 -4.64 10.34 -6 10 C-5.67 10.99 -5.34 11.98 -5 13 C-5.47050781 13.38671875 -5.94101563 13.7734375 -6.42578125 14.171875 C-9.7131472 16.92155583 -12.53896379 19.46894804 -15 23 C-16.51558306 24.78739959 -18.05421566 26.55303519 -19.59765625 28.31640625 C-21.18202741 30.15787611 -21.18202741 30.15787611 -23 33 C-22.175 33.45375 -21.35 33.9075 -20.5 34.375 C-19.675 34.91125 -18.85 35.4475 -18 36 C-18 36.66 -18 37.32 -18 38 C-21.48670834 36.8905928 -24.77484237 35.73662334 -28 34 C-26.55254249 30.62509907 -24.73996146 28.61363507 -22.0625 26.125 C-16.511254 20.71701197 -11.93362456 14.6856741 -7.21875 8.56054688 C-4.91729106 5.61364673 -2.47094181 2.80485286 0 0 Z " fill="#EBC721" transform="translate(194,425)"/>
<path d="M0 0 C0.33 0 0.66 0 1 0 C1 13.2 1 26.4 1 40 C0.34 40 -0.32 40 -1 40 C-1 47.92 -1 55.84 -1 64 C-1.66 64 -2.32 64 -3 64 C-2.94779297 65.78857422 -2.94779297 65.78857422 -2.89453125 67.61328125 C-2.86639247 69.17967342 -2.8390924 70.74608081 -2.8125 72.3125 C-2.78736328 73.09818359 -2.76222656 73.88386719 -2.73632812 74.69335938 C-2.72666016 75.45068359 -2.71699219 76.20800781 -2.70703125 76.98828125 C-2.6913208 77.68477783 -2.67561035 78.38127441 -2.65942383 79.09887695 C-3.09761557 81.54489783 -4.13437358 82.42702086 -6 84 C-6.08391354 78.74032815 -5.82067871 73.78276217 -5.09765625 68.55859375 C-3.97131663 60.07759249 -3.16036992 51.58634607 -2.4375 43.0625 C-2.37307709 42.3140683 -2.30865417 41.5656366 -2.24227905 40.79452515 C-1.08054894 27.20734954 -0.34636426 13.63450461 0 0 Z " fill="#7E673A" transform="translate(264,60)"/>
<path d="M0 0 C0.33 0 0.66 0 1 0 C0.85479535 1.6250563 0.70879131 3.25004117 0.5625 4.875 C0.48128906 5.77992188 0.40007813 6.68484375 0.31640625 7.6171875 C0.14415664 9.45876971 -0.03455527 11.29998151 -0.24621582 13.13745117 C-0.94334239 19.3870906 -1.13243309 25.53571264 -1.09765625 31.8203125 C-1.0962413 32.80498505 -1.09482635 33.78965759 -1.09336853 34.8041687 C-1.08782615 37.911145 -1.07528483 41.01804593 -1.0625 44.125 C-1.05747754 46.24739478 -1.05291595 48.36979071 -1.04882812 50.4921875 C-1.03787567 55.66148683 -1.02065166 60.83073069 -1 66 C-1.66 66 -2.32 66 -3 66 C-4.18695418 63.62609164 -4.12075833 62.19755049 -4.11352539 59.55029297 C-4.11344986 58.62948944 -4.11337433 57.70868591 -4.11329651 56.75997925 C-4.10813522 55.76410797 -4.10297394 54.76823669 -4.09765625 53.7421875 C-4.0962413 52.72399933 -4.09482635 51.70581116 -4.09336853 50.6567688 C-4.087759 47.39614965 -4.07520488 44.13559849 -4.0625 40.875 C-4.05748623 38.66796974 -4.05292311 36.46093841 -4.04882812 34.25390625 C-4.03778648 28.83591419 -4.02103905 23.41796195 -4 18 C-3.34 18 -2.68 18 -2 18 C-2 13.38 -2 8.76 -2 4 C-1.34 4 -0.68 4 0 4 C0 2.68 0 1.36 0 0 Z " fill="#8A7132" transform="translate(59,231)"/>
<path d="M0 0 C0.33 0 0.66 0 1 0 C1.027193 1.58323688 1.04648306 3.16661062 1.0625 4.75 C1.07410156 5.63171875 1.08570313 6.5134375 1.09765625 7.421875 C1 10 1 10 0.50672913 11.84014893 C-0.07541629 14.32144977 -0.16116528 16.58725335 -0.20532227 19.13574219 C-0.22526749 20.15649841 -0.24521271 21.17725464 -0.26576233 22.22894287 C-0.28247482 23.32386047 -0.29918732 24.41877808 -0.31640625 25.546875 C-0.33718735 26.6732135 -0.35796844 27.799552 -0.37937927 28.96002197 C-0.44474333 32.55661949 -0.50369885 36.15328977 -0.5625 39.75 C-0.6056977 42.1888096 -0.6493124 44.62761184 -0.69335938 47.06640625 C-0.8004113 53.044194 -0.90220217 59.02205407 -1 65 C0.65 65 2.3 65 4 65 C0.25 68 0.25 68 -2 68 C-2.96887007 63.09934258 -3.1750571 58.40978742 -3.203125 53.4375 C-3.20991272 52.61648804 -3.21670044 51.79547607 -3.22369385 50.94958496 C-3.24062831 48.29968464 -3.24688889 45.6499509 -3.25 43 C-3.25233643 42.10337646 -3.25467285 41.20675293 -3.25708008 40.28295898 C-3.27056065 26.61733806 -2.59194819 13.45344536 0 0 Z " fill="#F0CC26" transform="translate(60,230)"/>
<path d="M0 0 C15.61458066 -0.58372264 30.61066179 1.63796666 46 4 C46 4.66 46 5.32 46 6 C46.969375 5.979375 47.93875 5.95875 48.9375 5.9375 C52 6 52 6 53 7 C54.34747084 7.23075082 55.70377565 7.41153063 57.0625 7.5625 C58.361875 7.706875 59.66125 7.85125 61 8 C61 8.66 61 9.32 61 10 C61.804375 10.12375 62.60875 10.2475 63.4375 10.375 C64.283125 10.58125 65.12875 10.7875 66 11 C66.495 11.99 66.495 11.99 67 13 C66.44957031 12.84144531 65.89914062 12.68289062 65.33203125 12.51953125 C44.12689966 6.56894393 23.02496208 2.09034466 1 1 C1 8.26 1 15.52 1 23 C0.67 23 0.34 23 0 23 C0 15.41 0 7.82 0 0 Z " fill="#8E752F" transform="translate(274,59)"/>
<path d="M0 0 C0.33 0 0.66 0 1 0 C1.02473868 3.93268867 1.04287835 7.86534713 1.05493164 11.7980957 C1.06242729 13.79314768 1.07513345 15.78817786 1.08789062 17.78320312 C1.09111328 19.03681641 1.09433594 20.29042969 1.09765625 21.58203125 C1.10289307 22.73936768 1.10812988 23.8967041 1.11352539 25.08911133 C1 28 1 28 0 31 C-0.20076251 33.1637737 -0.3632314 35.33124078 -0.5 37.5 C-0.71681305 40.93803558 -0.90942268 43.72826805 -2 47 C-2.15306664 49.41505142 -2.2738577 51.83221734 -2.375 54.25 C-2.65897288 59.75353946 -3.28317415 64.15696262 -6 69 C-7.01478073 65.80618334 -6.94264371 63.57136807 -6.328125 60.29296875 C-6.07530762 58.85123291 -6.07530762 58.85123291 -5.81738281 57.38037109 C-5.63014648 56.32672363 -5.44291016 55.27307617 -5.25 54.1875 C-3.22905514 42.12002556 -2.13753634 30.06972148 -1.25 17.875 C-1.18542603 16.98791351 -1.12085205 16.10082703 -1.05432129 15.18685913 C-0.68928849 10.12545785 -0.33874515 5.06322538 0 0 Z " fill="#826A34" transform="translate(160,91)"/>
<path d="M0 0 C0.33 0 0.66 0 1 0 C0.29025896 20.11509968 -1.51757854 39.81573487 -4.64306641 59.69628906 C-5.48382715 65.12270381 -6.23479115 70.56251592 -7 76 C-7.33 76 -7.66 76 -8 76 C-7.86181468 72.52048477 -7.71317399 69.04149505 -7.5625 65.5625 C-7.52318359 64.56927734 -7.48386719 63.57605469 -7.44335938 62.55273438 C-7.40146484 61.60849609 -7.35957031 60.66425781 -7.31640625 59.69140625 C-7.27974854 58.81685791 -7.24309082 57.94230957 -7.20532227 57.04125977 C-7 55 -7 55 -6 54 C-5.78964095 51.87887958 -5.63149899 49.75246581 -5.5 47.625 C-5.28419953 44.14907092 -5.1024508 41.3073524 -4 38 C-3.74006036 34.35723473 -3.55719417 30.72013227 -3.39453125 27.07226562 C-3.10073855 21.20147711 -3.10073855 21.20147711 -2 19 C-1.79242624 16.35055153 -1.62601628 13.71584277 -1.5 11.0625 C-1.13428793 3.40286378 -1.13428793 3.40286378 0 0 Z " fill="#E8C329" transform="translate(262,90)"/>
<path d="M0 0 C2.40834576 2.40834576 2.26620846 3.01512561 2.3347168 6.31030273 C2.35781418 7.20140244 2.38091156 8.09250214 2.40470886 9.01060486 C2.42674126 10.45748436 2.42674126 10.45748436 2.44921875 11.93359375 C2.47095657 12.92247086 2.4926944 13.91134796 2.51509094 14.93019104 C2.55905465 17.02408778 2.59824373 19.11808933 2.63305664 21.2121582 C2.68722278 24.42107689 2.75741968 27.62934295 2.83007812 30.83789062 C2.87074321 32.86977285 2.91048746 34.90167375 2.94921875 36.93359375 C2.96997971 37.89615585 2.99074066 38.85871796 3.01213074 39.85044861 C3.03259209 41.1918264 3.03259209 41.1918264 3.0534668 42.56030273 C3.06741989 43.34702866 3.08137299 44.13375458 3.0957489 44.94432068 C3 47 3 47 2 50 C-1.465 50.495 -1.465 50.495 -5 51 C-5 50.34 -5 49.68 -5 49 C-3.68 49.33 -2.36 49.66 -1 50 C-0.00859255 39.01739612 0.12097056 28.14173567 0.0625 17.125 C0.05746914 15.45442844 0.05290907 13.7838554 0.04882812 12.11328125 C0.03796159 8.07548318 0.02078681 4.03775868 0 0 Z " fill="#7B6334" transform="translate(481,248)"/>
<path d="M0 0 C0 8.25 0 16.5 0 25 C-0.33 25 -0.66 25 -1 25 C-1 17.08 -1 9.16 -1 1 C-7.03652664 0.86779854 -7.03652664 0.86779854 -12 3 C-13.70563778 3.15740605 -15.41727244 3.25093392 -17.12890625 3.31640625 C-18.68061523 3.37924805 -18.68061523 3.37924805 -20.26367188 3.44335938 C-21.8965918 3.50233398 -21.8965918 3.50233398 -23.5625 3.5625 C-25.2012207 3.62727539 -25.2012207 3.62727539 -26.87304688 3.69335938 C-29.58189564 3.79982068 -32.29083992 3.90183516 -35 4 C-26.08172611 -1.94551593 -10.34766672 -0.18477976 0 0 Z " fill="#D7B627" transform="translate(264,60)"/>
<path d="M0 0 C0.33 0 0.66 0 1 0 C1.15855469 1.0209375 1.31710937 2.041875 1.48046875 3.09375 C3.11456008 13.3566114 5.08425613 23.51720188 7.28588867 33.67382812 C8.45247787 39.11095896 9.4088657 44.4696102 10 50 C9.505 48.515 9.505 48.515 9 47 C8.34 47 7.68 47 7 47 C6.855625 45.865625 6.71125 44.73125 6.5625 43.5625 C6.38828522 40.19222799 6.38828522 40.19222799 5 39 C3.68352959 32.36960159 2.68539277 25.76405546 3 19 C2.34 19 1.68 19 1 19 C0.67 12.73 0.34 6.46 0 0 Z " fill="#8B7130" transform="translate(282,158)"/>
<path d="M0 0 C1.66502806 2.49754209 2.50034274 4.14416909 3.40234375 6.9140625 C3.65306641 7.67589844 3.90378906 8.43773437 4.16210938 9.22265625 C4.41798828 10.01542969 4.67386719 10.80820313 4.9375 11.625 C5.18951172 12.39457031 5.44152344 13.16414062 5.70117188 13.95703125 C6.20979299 15.51021183 6.71679539 17.06392344 7.22216797 18.61816406 C8.46314116 22.41820625 9.73129882 26.2091412 11 30 C8.47411298 27.63707344 7.11179163 26.33537489 6 23 C5.34 23 4.68 23 4 23 C4.33 21.35 4.66 19.7 5 18 C3.35 18.33 1.7 18.66 0 19 C0.17402344 18.32582031 0.34804687 17.65164062 0.52734375 16.95703125 C1.09350437 13.41501812 0.86291122 10.25905566 0.5625 6.6875 C0.46066406 5.43324219 0.35882813 4.17898437 0.25390625 2.88671875 C0.17011719 1.93410156 0.08632812 0.98148438 0 0 Z " fill="#7B6742" transform="translate(184,195)"/>
<path d="M0 0 C2 2 2 2 2.1953125 5.6953125 C2.182009 7.17200108 2.15814835 8.64862358 2.125 10.125 C2.11597656 10.87910156 2.10695312 11.63320312 2.09765625 12.41015625 C2.0740687 14.27357254 2.03819719 16.13682593 2 18 C2.66 18 3.32 18 4 18 C4.06058594 19.07121094 4.12117187 20.14242187 4.18359375 21.24609375 C4.26798537 22.64324391 4.35263406 24.04037857 4.4375 25.4375 C4.47681641 26.14455078 4.51613281 26.85160156 4.55664062 27.58007812 C4.47624438 31.08690419 4.47624438 31.08690419 6 34 C6.07226502 35.85287502 6.0838122 37.70833878 6.0625 39.5625 C6.05347656 40.57441406 6.04445312 41.58632812 6.03515625 42.62890625 C6.02355469 43.41136719 6.01195312 44.19382813 6 45 C4.47858954 42.22255502 3.64897314 39.84654044 3.18359375 36.71875 C3.05960205 35.88561279 2.93561035 35.05247559 2.80786133 34.1940918 C2.68564209 33.3050415 2.56342285 32.41599121 2.4375 31.5 C2.30819092 30.58323486 2.17888184 29.66646973 2.0456543 28.72192383 C0.77110097 19.17378248 0.29970059 9.62142239 0 0 Z " fill="#E9C52B" transform="translate(171,119)"/>
<path d="M0 0 C2.475 0.99 2.475 0.99 5 2 C4.01 2.66 3.02 3.32 2 4 C1.70762529 6.47103785 1.62612801 8.65449314 1.6875 11.125 C1.69587891 11.858396 1.70425781 12.59179199 1.71289062 13.34741211 C1.8728564 21.12894729 2.55945466 28.87754879 3.2878418 36.62353516 C3.80031136 42.11447569 4.10492506 47.48487669 4 53 C3.67 53 3.34 53 3 53 C0.15452723 35.31939252 -0.15265904 17.86815358 0 0 Z " fill="#E0BE32" transform="translate(379,91)"/>
<path d="M0 0 C0.33 0 0.66 0 1 0 C1.84033982 3.98269682 2.6763467 7.96627739 3.50854492 11.95068359 C3.79156775 13.30281428 4.07572331 14.65470843 4.36108398 16.00634766 C5.83380139 22.98563539 7.28441185 29.89846697 8 37 C7.34 37 6.68 37 6 37 C5.87625 36.030625 5.7525 35.06125 5.625 34.0625 C5.41875 33.051875 5.2125 32.04125 5 31 C4.34 30.67 3.68 30.34 3 30 C3.33 27.36 3.66 24.72 4 22 C3.34 22 2.68 22 2 22 C1.66076424 19.64655194 1.32849466 17.2924516 1 14.9375 C0.85691406 13.95233398 0.85691406 13.95233398 0.7109375 12.94726562 C0.11112326 8.59861237 -0.09127093 4.38670929 0 0 Z " fill="#8B7035" transform="translate(383,149)"/>
<path d="M0 0 C0.33 0 0.66 0 1 0 C1.41277905 30.5392995 1.41277905 30.5392995 -1 42 C-8.57142857 40.14285714 -8.57142857 40.14285714 -11 37 C-9.68 37 -8.36 37 -7 37 C-7 37.66 -7 38.32 -7 39 C-5.35 39 -3.7 39 -2 39 C-0.76636652 26.03372469 -0.4530886 13.01136438 0 0 Z " fill="#D5B52C" transform="translate(481,256)"/>
<path d="M0 0 C2.50276394 3.03496087 3.91612312 5.93195283 5.25 9.625 C5.60578125 10.58664063 5.9615625 11.54828125 6.328125 12.5390625 C7 15 7 15 6 17 C3.03194929 13.62721511 2.13535971 10.29814746 1 6 C0.67 5.67 0.34 5.34 0 5 C0.061875 5.886875 0.12375 6.77375 0.1875 7.6875 C-0.02151439 11.38008752 -0.71471101 13.12222868 -3 16 C-3.99 16 -4.98 16 -6 16 C-4.25192871 10.53262809 -2.34205919 5.24175152 0 0 Z " fill="#EBC72C" transform="translate(164,238)"/>
<path d="M0 0 C3.37741742 2.65860846 4.30034357 6.18324963 5.5625 10.125 C6.31362155 12.45510463 7.11412796 14.71368997 8 17 C8.66 17.33 9.32 17.66 10 18 C10.74609375 19.890625 10.74609375 19.890625 11.4375 22.25 C12.33051676 25.13971064 13.13539336 27.21759648 14.75 29.8125 C16 32 16 32 15.578125 34.13671875 C15.38734375 34.75160156 15.1965625 35.36648438 15 36 C9.00592228 24.39444527 3.32950884 12.67549858 0 0 Z " fill="#866C34" transform="translate(165,238)"/>
<path d="M0 0 C0.33 0 0.66 0 1 0 C1.3690205 11.52164009 1.3690205 11.52164009 -1 17 C-1.66 17 -2.32 17 -3 17 C-3 19.31 -3 21.62 -3 24 C-3.66 24 -4.32 24 -5 24 C-5.66 25.98 -6.32 27.96 -7 30 C-8 28 -8 28 -7.36328125 25.7421875 C-7.01652344 24.79601562 -6.66976562 23.84984375 -6.3125 22.875 C-3.69153515 15.36826443 -1.84310411 7.72535127 0 0 Z " fill="#856C37" transform="translate(246,204)"/>
<path d="M0 0 C0.33 1.32 0.66 2.64 1 4 C0.34 4 -0.32 4 -1 4 C-1 5.32 -1 6.64 -1 8 C-1.66 8.66 -2.32 9.32 -3 10 C-2.34 10.33 -1.68 10.66 -1 11 C-1.33 11.99 -1.66 12.98 -2 14 C-3.65 14.33 -5.3 14.66 -7 15 C-7.33 15.99 -7.66 16.98 -8 18 C-10.0625 19.1875 -10.0625 19.1875 -12 20 C-10.64401019 16.22211794 -8.91839446 13.24252141 -6.5625 10 C-4.20762402 6.74487985 -2.02646488 3.47039857 0 0 Z " fill="#7D6740" transform="translate(452,380)"/>
<path d="M0 0 C1.19224452 3.57673356 0.75143679 4.37565356 -0.5625 7.8125 C-0.92988281 8.77414063 -1.29726563 9.73578125 -1.67578125 10.7265625 C-4.021887 16.52608054 -6.49026398 22.26943609 -9 28 C-9.33 28 -9.66 28 -10 28 C-10.22036864 24.14354879 -9.60355101 21.50776784 -8 18 C-7.34 18 -6.68 18 -6 18 C-6 16.35 -6 14.7 -6 13 C-5.34 13 -4.68 13 -4 13 C-4 11.35 -4 9.7 -4 8 C-3.34 8 -2.68 8 -2 8 C-2 6.02 -2 4.04 -2 2 C-1.34 2 -0.68 2 0 2 C0 1.34 0 0.68 0 0 Z " fill="#EDCA24" transform="translate(351,199)"/>
<path d="M0 0 C0.33 0 0.66 0 1 0 C1.3384185 3.6870516 1.66981608 7.37470259 2 11.0625 C2.14308594 12.62000977 2.14308594 12.62000977 2.2890625 14.20898438 C2.75899954 19.49577606 3.12045745 24.69234381 3 30 C1.51831055 28.88745117 1.51831055 28.88745117 0 27 C-0.34057617 24.1809082 -0.34057617 24.1809082 -0.29296875 20.80078125 C-0.28330078 19.59228516 -0.27363281 18.38378906 -0.26367188 17.13867188 C-0.23853516 15.87603516 -0.21339844 14.61339844 -0.1875 13.3125 C-0.17396484 12.03826172 -0.16042969 10.76402344 -0.14648438 9.45117188 C-0.11108199 6.30035943 -0.0616979 3.15038955 0 0 Z " fill="#866D38" transform="translate(275,96)"/>
<path d="M0 0 C-7.32834811 4.8855654 -17.43506734 6.22794497 -26 8 C-26 7.34 -26 6.68 -26 6 C-24.35 6 -22.7 6 -21 6 C-20.67 4.68 -20.34 3.36 -20 2 C-19.24074219 1.93941406 -18.48148438 1.87882812 -17.69921875 1.81640625 C-16.70535156 1.73261719 -15.71148437 1.64882812 -14.6875 1.5625 C-13.70136719 1.48128906 -12.71523437 1.40007812 -11.69921875 1.31640625 C-0.39437269 -0.00876384 -0.39437269 -0.00876384 0 0 Z " fill="#7F6839" transform="translate(219,65)"/>
<path d="M0 0 C0.66 0 1.32 0 2 0 C2.06058594 0.71027344 2.12117188 1.42054688 2.18359375 2.15234375 C2.26738281 3.07144531 2.35117187 3.99054688 2.4375 4.9375 C2.51871094 5.85402344 2.59992188 6.77054688 2.68359375 7.71484375 C2.76044976 9.96159732 2.76044976 9.96159732 4 11 C4.32097751 13.31817089 4.51220956 15.63779357 4.71875 17.96875 C4.79065837 19.99180593 4.79065837 19.99180593 6 21 C6.07226502 22.85287502 6.0838122 24.70833878 6.0625 26.5625 C6.05347656 27.57441406 6.04445313 28.58632812 6.03515625 29.62890625 C6.02355469 30.41136719 6.01195312 31.19382813 6 32 C5.67 32 5.34 32 5 32 C0.4308534 10.5989937 0.4308534 10.5989937 0 0 Z " fill="#EDC829" transform="translate(283,160)"/>
<path d="M0 0 C0.99 0.495 0.99 0.495 2 1 C2.37890625 2.8125 2.37890625 2.8125 2.5625 5 C2.62665408 7.78932058 2.62665408 7.78932058 4 10 C4.56912059 12.74829217 5.08502606 15.48567718 5.5625 18.25 C5.77036133 19.39662109 5.77036133 19.39662109 5.98242188 20.56640625 C6.65842456 24.4226186 7.18089431 28.06751489 7 32 C4.43827994 27.29693773 3.5386199 22.31393292 2.375 17.125 C2.14554687 16.14402344 1.91609375 15.16304687 1.6796875 14.15234375 C0.59312305 9.35981839 -0.31879341 4.94968715 0 0 Z " fill="#EDC828" transform="translate(385,154)"/>
<path d="M0 0 C0 0.99 0 1.98 0 3 C-0.70125 3.556875 -1.4025 4.11375 -2.125 4.6875 C-4.78334604 6.82573485 -6.07848976 8.46884219 -7.9375 11.25 C-9.44140625 13.359375 -9.44140625 13.359375 -11 15 C-14.375 15.5 -14.375 15.5 -17 15 C-13.41157029 11.30504919 -9.66828129 7.95241783 -5.6875 4.6875 C-5.13771484 4.23310547 -4.58792969 3.77871094 -4.02148438 3.31054688 C-2.68287784 2.20474148 -1.34170769 1.10204061 0 0 Z " fill="#83693B" transform="translate(145,389)"/>
<path d="M0 0 C2.8722873 1.43614365 2.97011217 2.97470451 4 6 C5.42897152 10.75671342 6.25060521 14.98789584 6 20 C6.66 20 7.32 20 8 20 C8 23.3 8 26.6 8 30 C7.67 30 7.34 30 7 30 C4.45140394 20.03848241 2.07740531 10.07226816 0 0 Z " fill="#826A36" transform="translate(471,204)"/>
<path d="M0 0 C0.33 0 0.66 0 1 0 C1.02689216 1.47906892 1.04634621 2.95827483 1.0625 4.4375 C1.07410156 5.26121094 1.08570313 6.08492187 1.09765625 6.93359375 C1 9 1 9 0 10 C-0.28648879 12.71027491 -0.44835421 15.42089608 -0.62109375 18.140625 C-1.00664476 21.05014395 -1.79850578 23.3343367 -3 26 C-3.66 26 -4.32 26 -5 26 C-4.35215814 20.05349367 -3.28016565 14.32612517 -1.9375 8.5 C-1.75123047 7.67757812 -1.56496094 6.85515625 -1.37304688 6.0078125 C-0.91879115 4.0044283 -0.45988401 2.0020997 0 0 Z " fill="#826A37" transform="translate(252,178)"/>
<path d="M0 0 C1.59060619 5.19219307 -0.08216403 9.20257122 -2.5 13.9375 C-3.2425 14.9584375 -3.2425 14.9584375 -4 16 C-4.66 16 -5.32 16 -6 16 C-6 16.99 -6 17.98 -6 19 C-6.99 19 -7.98 19 -9 19 C-7.39369175 14.75707468 -5.4231838 10.72974893 -3.375 6.6875 C-3.05015625 6.04232422 -2.7253125 5.39714844 -2.390625 4.73242188 C-1.59558044 3.15402459 -0.79804366 1.57688306 0 0 Z " fill="#80693F" transform="translate(205,308)"/>
<path d="M0 0 C1.81618856 1.11903546 3.62785526 2.24541284 5.4375 3.375 C6.44683594 4.00148438 7.45617187 4.62796875 8.49609375 5.2734375 C11 7 11 7 12 9 C8.7 9.33 5.4 9.66 2 10 C2.226875 9.236875 2.45375 8.47375 2.6875 7.6875 C2.790625 6.800625 2.89375 5.91375 3 5 C1.62485459 3.2912354 1.62485459 3.2912354 0 2 C0 1.34 0 0.68 0 0 Z " fill="#7B6448" transform="translate(452,282)"/>
<path d="M0 0 C0.66 0.33 1.32 0.66 2 1 C0.33333333 2.66666667 -1.33333333 4.33333333 -3 6 C-3.495 6.556875 -3.99 7.11375 -4.5 7.6875 C-6 9 -6 9 -8.3125 9.875 C-11.85052048 11.35603183 -14.13034339 13.4640244 -17 16 C-17.66 15.67 -18.32 15.34 -19 15 C-6.51480638 4.44191344 -6.51480638 4.44191344 0 0 Z " fill="#E9C825" transform="translate(149,96)"/>
<path d="M0 0 C4.75 0.875 4.75 0.875 7 2 C7 2.66 7 3.32 7 4 C8.0725 4.020625 9.145 4.04125 10.25 4.0625 C14 5 14 5 15.35546875 6.625 C16.32906795 8.36834009 17.17372659 10.1821985 18 12 C13.59340541 9.92692122 9.62916624 7.21523604 5.55859375 4.55859375 C3.0235894 2.88371086 3.0235894 2.88371086 0 2 C-0.33 2.99 -0.66 3.98 -1 5 C-0.67 3.35 -0.34 1.7 0 0 Z " fill="#81673D" transform="translate(378,89)"/>
<path d="M0 0 C3.32186372 4.98279558 4.5888526 9.28335868 5.5625 15.1875 C5.69180908 15.94474365 5.82111816 16.7019873 5.9543457 17.48217773 C6.81948396 22.64145714 7.52624505 27.78869559 8 33 C5.92477369 29.88716053 5.32254009 27.77288431 4.4921875 24.16015625 C4.22792969 23.01482422 3.96367187 21.86949219 3.69140625 20.68945312 C3.42199219 19.49255859 3.15257812 18.29566406 2.875 17.0625 C2.59785156 15.86947266 2.32070313 14.67644531 2.03515625 13.44726562 C0 4.52967211 0 4.52967211 0 0 Z " fill="#856E2B" transform="translate(271,244)"/>
<path d="M0 0 C2.52304204 3.78456307 3.16526807 7.29050592 4.125 11.6875 C4.30675781 12.46544922 4.48851562 13.24339844 4.67578125 14.04492188 C5.80687092 19.14332983 6.17898543 23.77959177 6 29 C3.4351112 25.1526668 2.87438561 22.32529378 2.5625 17.8125 C2.27322681 14.28523338 1.85030576 10.98230748 0.9375 7.5625 C0 4 0 4 0 0 Z " fill="#E1C02C" transform="translate(474,218)"/>
<path d="M0 0 C0.33 0 0.66 0 1 0 C1.33 5.28 1.66 10.56 2 16 C1.01 16.33 0.02 16.66 -1 17 C-1.33 18.65 -1.66 20.3 -2 22 C-2.93979382 18.96143341 -2.99875808 16.79304528 -2.44140625 13.671875 C-2.30283203 12.87265625 -2.16425781 12.0734375 -2.02148438 11.25 C-1.87001953 10.425 -1.71855469 9.6 -1.5625 8.75 C-1.41490234 7.90953125 -1.26730469 7.0690625 -1.11523438 6.203125 C-0.7508064 4.13411456 -0.37637459 2.06687061 0 0 Z " fill="#826A3A" transform="translate(364,146)"/>
<path d="M0 0 C7.5 0.625 7.5 0.625 12 4 C11.34 7.96 10.68 11.92 10 16 C9.01 16 8.02 16 7 16 C7.99 12.04 8.98 8.08 10 4 C8.35 3.67 6.7 3.34 5 3 C3.3207762 2.36562656 1.64991582 1.70710678 0 1 C0 0.67 0 0.34 0 0 Z " fill="#83683C" transform="translate(458,340)"/>
<path d="M0 0 C0 1.65 0 3.3 0 5 C-0.928125 5.12375 -0.928125 5.12375 -1.875 5.25 C-4.16150356 5.78035516 -4.16150356 5.78035516 -4.9375 7.875 C-6.37829236 10.75658472 -8.13479934 11.63902969 -11 13 C-11.66 12.67 -12.32 12.34 -13 12 C-11.0238076 9.99698146 -9.04425526 7.99750133 -7.0625 6 C-6.49853516 5.42765625 -5.93457031 4.8553125 -5.35351562 4.265625 C-1.11328125 0 -1.11328125 0 0 0 Z " fill="#886D3D" transform="translate(159,376)"/>
<path d="M0 0 C6.66666667 6.66666667 13.33333333 13.33333333 20 20 C19.34 20.33 18.68 20.66 18 21 C14.1592079 19.71973597 14.03858565 18.41199898 12 15 C9.67434264 12.59591138 7.29684542 10.29670721 4.8515625 8.01757812 C0.36635867 3.70720078 0.36635867 3.70720078 0 0 Z " fill="#8B7031" transform="translate(371,367)"/>
<path d="M0 0 C1.134375 0.020625 2.26875 0.04125 3.4375 0.0625 C-0.30769763 2.2220685 -4.33927667 3.16343865 -8.5 4.1875 C-9.20318359 4.36925781 -9.90636719 4.55101562 -10.63085938 4.73828125 C-14.34510224 5.6642312 -17.73144378 6.28741524 -21.5625 6.0625 C-21.5625 5.4025 -21.5625 4.7425 -21.5625 4.0625 C-19.51171875 3.83463542 -17.4609375 3.60677083 -15.41015625 3.37890625 C-13.55109771 3.24363386 -13.55109771 3.24363386 -12.5625 2.0625 C-10.5052083 1.74326508 -8.44636479 1.55088648 -6.375 1.34375 C-3.20314419 0.85156548 -3.96901294 0.06963181 0 0 Z " fill="#EECB24" transform="translate(328.5625,474.9375)"/>
<path d="M0 0 C4.63720719 3.27530896 8.68542782 6.30435607 12 11 C11.21625 10.79375 10.4325 10.5875 9.625 10.375 C8.75875 10.25125 7.8925 10.1275 7 10 C6.34 10.66 5.68 11.32 5 12 C4.33333333 10 3.66666667 8 3 6 C2.01 6.495 2.01 6.495 1 7 C0.67 4.69 0.34 2.38 0 0 Z " fill="#796246" transform="translate(391,388)"/>
<path d="M0 0 C0.763125 0.20625 1.52625 0.4125 2.3125 0.625 C-1.36307852 4.63472202 -4.87716896 7.07835415 -9.6875 9.625 C-9.6875 8.965 -9.6875 8.305 -9.6875 7.625 C-9.0275 7.625 -8.3675 7.625 -7.6875 7.625 C-8.0175 6.305 -8.3475 4.985 -8.6875 3.625 C-7.6975 3.625 -6.7075 3.625 -5.6875 3.625 C-5.6875 2.965 -5.6875 2.305 -5.6875 1.625 C-2.6875 -0.375 -2.6875 -0.375 0 0 Z " fill="#77624B" transform="translate(105.6875,321.375)"/>
<path d="M0 0 C1.11991797 3.36315792 0.85748516 5.57005937 0.00390625 8.984375 C-0.22490234 9.91894531 -0.45371094 10.85351562 -0.68945312 11.81640625 C-0.93630859 12.78449219 -1.18316406 13.75257813 -1.4375 14.75 C-1.68048828 15.73355469 -1.92347656 16.71710938 -2.17382812 17.73046875 C-2.77428331 20.15583673 -3.38326726 22.57872945 -4 25 C-4.33 25 -4.66 25 -5 25 C-5 22.03 -5 19.06 -5 16 C-4.34 16 -3.68 16 -3 16 C-3.020625 14.865625 -3.04125 13.73125 -3.0625 12.5625 C-3 9 -3 9 -2 8 C-1.835 6.845 -1.67 5.69 -1.5 4.5 C-1 1 -1 1 0 0 Z " fill="#806A34" transform="translate(264,252)"/>
<path d="M0 0 C1.13583456 3.71727674 0.66670026 5.47051709 -1 9 C-1.66 9 -2.32 9 -3 9 C-3 9.99 -3 10.98 -3 12 C-3.66 12 -4.32 12 -5 12 C-4.9071875 13.175625 -4.9071875 13.175625 -4.8125 14.375 C-4.874375 15.24125 -4.93625 16.1075 -5 17 C-5.99 17.66 -6.98 18.32 -8 19 C-8.33 19.99 -8.66 20.98 -9 22 C-9.66 22 -10.32 22 -11 22 C-9.23465356 17.15984684 -6.80463275 12.7164873 -4.375 8.1875 C-3.95476562 7.39923828 -3.53453125 6.61097656 -3.1015625 5.79882812 C-2.0699991 3.86464674 -1.03608828 1.93176017 0 0 Z " fill="#E6C428" transform="translate(222,378)"/>
<path d="M0 0 C2.86392794 3.52830761 5.58784278 7.12984917 8.25 10.8125 C8.95640625 11.78832031 9.6628125 12.76414062 10.390625 13.76953125 C10.92171875 14.50558594 11.4528125 15.24164063 12 16 C11.67 16.66 11.34 17.32 11 18 C10.278125 17.0925 9.55625 16.185 8.8125 15.25 C6.47347206 12.4298006 3.94933345 10.19093342 1 8 C1.33 6.68 1.66 5.36 2 4 C1.34 4 0.68 4 0 4 C0 2.68 0 1.36 0 0 Z " fill="#7E653E" transform="translate(345,332)"/>
<path d="M0 0 C2 1 2 1 3.125 3.1875 C4.08328236 6.26769331 4.14915816 8.79309948 4 12 C4.66 12.33 5.32 12.66 6 13 C6.66796875 15.14453125 6.66796875 15.14453125 7.1875 17.8125 C7.36667969 18.68519531 7.54585938 19.55789063 7.73046875 20.45703125 C8.00033541 23.0031645 7.68207383 24.57037376 7 27 C6.01229284 23.81508393 5.03640841 20.62666004 4.0625 17.4375 C3.78470703 16.54224609 3.50691406 15.64699219 3.22070312 14.72460938 C1.72597152 9.80820301 0.55388092 5.11112898 0 0 Z " fill="#7E6635" transform="translate(279,278)"/>
<path d="M0 0 C1 3 1 3 0.22265625 4.82421875 C-0.8515625 6.54947917 -1.92578125 8.27473958 -3 10 C-3.66 10 -4.32 10 -5 10 C-5.33 10.99 -5.66 11.98 -6 13 C-8.5625 14.1875 -8.5625 14.1875 -11 15 C-10.62488281 14.50371094 -10.24976563 14.00742187 -9.86328125 13.49609375 C-6.50836081 9.04258476 -3.22288764 4.54995902 0 0 Z " fill="#866A3C" transform="translate(182,347)"/>
<path d="M0 0 C4.25491665 0.47276852 6.22542845 2.92547477 9 6 C9.33 6.66 9.66 7.32 10 8 C8.68 7.67 7.36 7.34 6 7 C6 6.34 6 5.68 6 5 C5.34 5 4.68 5 4 5 C3.67 5.66 3.34 6.32 3 7 C2.01 6.67 1.02 6.34 0 6 C0 4.02 0 2.04 0 0 Z " fill="#76624D" transform="translate(352,348)"/>
<path d="M0 0 C0.66 0 1.32 0 2 0 C2 1.32 2 2.64 2 4 C2.66 4 3.32 4 4 4 C5.49821059 7.37097383 6 9.20442119 6 13 C6.66 13 7.32 13 8 13 C8.33 15.64 8.66 18.28 9 21 C6.02067065 17.51069535 4.45260749 13.60283265 2.8125 9.375 C2.53986328 8.694375 2.26722656 8.01375 1.98632812 7.3125 C0 2.27449483 0 2.27449483 0 0 Z " fill="#7F6738" transform="translate(299,340)"/>
<path d="M0 0 C0.66 0 1.32 0 2 0 C0.44298069 4.67105792 -2.08447373 8.08705685 -5 12 C-5.144375 11.38125 -5.28875 10.7625 -5.4375 10.125 C-5.93152225 7.96741678 -5.93152225 7.96741678 -7 6 C-5.68 4.68 -4.36 3.36 -3 2 C-2.01 2.33 -1.02 2.66 0 3 C0 2.01 0 1.02 0 0 Z " fill="#7B6247" transform="translate(143,279)"/>
<path d="M0 0 C0.33 0.66 0.66 1.32 1 2 C-2.42674253 10.72261735 -2.42674253 10.72261735 -4.9375 11.9375 C-7.31971493 12.95345922 -7.31971493 12.95345922 -9 16 C-9.66 15.67 -10.32 15.34 -11 15 C-10.06027344 13.75283203 -10.06027344 13.75283203 -9.1015625 12.48046875 C-8.27599902 11.38284458 -7.45048054 10.28518655 -6.625 9.1875 C-6.2125 8.64029297 -5.8 8.09308594 -5.375 7.52929688 C-3.51592968 5.05553395 -1.71710028 2.57565041 0 0 Z " fill="#866B3A" transform="translate(327,253)"/>
<path d="M0 0 C0.33 0.66 0.66 1.32 1 2 C-0.19427286 4.73650671 -1.44471772 7.35238083 -2.8125 10 C-3.18181641 10.73734375 -3.55113281 11.4746875 -3.93164062 12.234375 C-6.71898191 17.71898191 -6.71898191 17.71898191 -9 20 C-9 18.35 -9 16.7 -9 15 C-8.34 15 -7.68 15 -7 15 C-7 14.01 -7 13.02 -7 12 C-6.34 12 -5.68 12 -5 12 C-5 10.68 -5 9.36 -5 8 C-4.34 8 -3.68 8 -3 8 C-3 6.68 -3 5.36 -3 4 C-2.34 4 -1.68 4 -1 4 C-0.67 2.68 -0.34 1.36 0 0 Z " fill="#ECCA25" transform="translate(134,216)"/>
<path d="M0 0 C0.99 0.33 1.98 0.66 3 1 C3 2.32 3 3.64 3 5 C2.01 5.495 2.01 5.495 1 6 C0.30772968 8.80980673 0.30772968 8.80980673 -0.125 12.0625 C-0.29257812 13.16722656 -0.46015625 14.27195313 -0.6328125 15.41015625 C-0.75398438 16.26480469 -0.87515625 17.11945313 -1 18 C-1.66 18 -2.32 18 -3 18 C-2.69272975 15.18683642 -2.37944848 12.37457481 -2.0625 9.5625 C-1.97548828 8.76005859 -1.88847656 7.95761719 -1.79882812 7.13085938 C-1.11328125 1.11328125 -1.11328125 1.11328125 0 0 Z " fill="#E2C131" transform="translate(268,238)"/>
<path d="M0 0 C1.97625073 2.9643761 3.29886906 5.78787746 4.6875 9.0625 C5.14511719 10.12597656 5.60273438 11.18945312 6.07421875 12.28515625 C6.37972656 13.18105469 6.68523437 14.07695312 7 15 C6.67 15.66 6.34 16.32 6 17 C5.34 17 4.68 17 4 17 C3.34 14.03 2.68 11.06 2 8 C1.01 8 0.02 8 -1 8 C-0.67 5.36 -0.34 2.72 0 0 Z " fill="#846E3A" transform="translate(397,203)"/>
<path d="M0 0 C0.99 0.495 0.99 0.495 2 1 C2 1.99 2 2.98 2 4 C2.66 4 3.32 4 4 4 C4 5.98 4 7.96 4 10 C4.66 10.33 5.32 10.66 6 11 C7.33350067 15.44500224 8.29175731 19.3318831 8 24 C6.2455884 21.3683826 5.41841456 19.57231956 4.4921875 16.62109375 C4.22792969 15.78255859 3.96367187 14.94402344 3.69140625 14.08007812 C3.42199219 13.20802734 3.15257812 12.33597656 2.875 11.4375 C2.59785156 10.56158203 2.32070312 9.68566406 2.03515625 8.78320312 C0 2.27170567 0 2.27170567 0 0 Z " fill="#E9C42A" transform="translate(181,184)"/>
<path d="M0 0 C0.33 0 0.66 0 1 0 C1.02687279 1.81242052 1.04633715 3.62495233 1.0625 5.4375 C1.07410156 6.44683594 1.08570313 7.45617187 1.09765625 8.49609375 C1 11 1 11 0 12 C-0.12375 13.11375 -0.2475 14.2275 -0.375 15.375 C-0.98311639 18.90207504 -1.21784407 19.94362388 -4 22 C-3.25403037 14.5403037 -1.63253871 7.31048782 0 0 Z " fill="#826B38" transform="translate(360,168)"/>
<path d="M0 0 C2.63520741 2.40502363 4.40302943 5.0185849 6.25 8.0625 C7.06210937 9.37927734 7.06210937 9.37927734 7.890625 10.72265625 C8.25671875 11.47417969 8.6228125 12.22570312 9 13 C8.67 13.66 8.34 14.32 8 15 C6 13.75 6 13.75 4 12 C4 10.68 4 9.36 4 8 C3.01 7.67 2.02 7.34 1 7 C1.33 6.01 1.66 5.02 2 4 C1.34 4 0.68 4 0 4 C0 2.68 0 1.36 0 0 Z " fill="#E9C622" transform="translate(327,400)"/>
<path d="M0 0 C2.97 0.99 5.94 1.98 9 3 C8.46148032 8.27749285 7.22656164 12.25645564 5 17 C3.53273202 13.18510326 4.56663581 10.70988378 6 7 C6.66 7 7.32 7 8 7 C8 6.01 8 5.02 8 4 C7.236875 4.04125 6.47375 4.0825 5.6875 4.125 C3 4 3 4 0 2 C0 1.34 0 0.68 0 0 Z " fill="#EACA28" transform="translate(459,341)"/>
<path d="M0 0 C0.99 0.33 1.98 0.66 3 1 C1.52464063 3.00291212 0.04497707 5.00236777 -1.4375 7 C-1.85837891 7.57234375 -2.27925781 8.1446875 -2.71289062 8.734375 C-3.78444136 10.17453919 -4.88966676 11.58951996 -6 13 C-6.33 13 -6.66 13 -7 13 C-7.25532751 9.93606987 -7.21861333 8.36766788 -5.625 5.6875 C-4.820625 4.8521875 -4.820625 4.8521875 -4 4 C-3.34 4 -2.68 4 -2 4 C-1.34 2.68 -0.68 1.36 0 0 Z " fill="#796348" transform="translate(348,285)"/>
<path d="M0 0 C0.3125 2.25 0.3125 2.25 0 5 C-3.0802463 8.16825333 -5.62179908 9.49963418 -10 10 C-9.06409496 8.8944811 -8.12620142 7.79064547 -7.1875 6.6875 C-6.66542969 6.07261719 -6.14335938 5.45773437 -5.60546875 4.82421875 C-1.35974304 0 -1.35974304 0 0 0 Z " fill="#816A40" transform="translate(102,268)"/>
<path d="M0 0 C3.05906926 2.51066469 3.75191278 4.90059933 4.6875 8.6875 C5.06455078 10.17830078 5.06455078 10.17830078 5.44921875 11.69921875 C5.63097656 12.45847656 5.81273437 13.21773437 6 14 C5.34 14 4.68 14 4 14 C3.34 11.03 2.68 8.06 2 5 C1.34 5 0.68 5 0 5 C-0.66 6.32 -1.32 7.64 -2 9 C-2.33 8.34 -2.66 7.68 -3 7 C-2.06421005 4.64018187 -1.06652192 2.30368736 0 0 Z " fill="#E6C62D" transform="translate(373,238)"/>
<path d="M0 0 C0.33 0 0.66 0 1 0 C1.37624659 5.14203672 0.00496851 8.32174015 -2 13 C-2.25269417 16.29285101 -2.25269417 16.29285101 -2 19 C-2.66 19.33 -3.32 19.66 -4 20 C-4.66 19.67 -5.32 19.34 -6 19 C-4.12275039 12.62267685 -2.14328358 6.29304541 0 0 Z " fill="#856D38" transform="translate(146,186)"/>
<path d="M0 0 C0 1.65 0 3.3 0 5 C2.31 5 4.62 5 7 5 C6.01 6.485 6.01 6.485 5 8 C0.38486888 6.68139111 -3.09897612 4.78644563 -7 2 C-4.35261084 0.5393715 -3.10551666 0 0 0 Z " fill="#EAC822" transform="translate(423,406)"/>
<path d="M0 0 C2.31399023 2.31399023 2.32256804 2.98604724 2.6328125 6.1328125 C2.71660156 6.93847656 2.80039062 7.74414062 2.88671875 8.57421875 C2.96535156 9.41597656 3.04398437 10.25773438 3.125 11.125 C3.21136719 11.97449219 3.29773438 12.82398438 3.38671875 13.69921875 C3.59902557 15.79869727 3.80053603 17.89926242 4 20 C3.34 20 2.68 20 2 20 C1.77213542 17.94921875 1.54427083 15.8984375 1.31640625 13.84765625 C1.18113386 11.98859771 1.18113386 11.98859771 0 11 C-0.07226502 9.14712498 -0.0838122 7.29166122 -0.0625 5.4375 C-0.05347656 4.42558594 -0.04445313 3.41367188 -0.03515625 2.37109375 C-0.02355469 1.58863281 -0.01195312 0.80617187 0 0 Z " fill="#7C6537" transform="translate(379,128)"/>
<path d="M0 0 C0.66 0 1.32 0 2 0 C0.35433477 5.68502535 -2.29032784 10.76681636 -5 16 C-5.66 14.68 -6.32 13.36 -7 12 C-6.01 11.67 -5.02 11.34 -4 11 C-4.04125 10.236875 -4.0825 9.47375 -4.125 8.6875 C-4 6 -4 6 -2 3 C-1.34 3 -0.68 3 0 3 C0 2.01 0 1.02 0 0 Z " fill="#7E633D" transform="translate(225,368)"/>
<path d="M0 0 C1.04449911 3.13349732 0.93423645 3.98968256 0 7 C-0.66 7 -1.32 7 -2 7 C-2 8.65 -2 10.3 -2 12 C-2.99 12.495 -2.99 12.495 -4 13 C-4.72159424 14.64363134 -5.39351421 16.31050386 -6 18 C-6.66 18 -7.32 18 -8 18 C-6.65150163 13.64029169 -4.95092154 9.68658562 -2.875 5.625 C-2.33617187 4.56539063 -1.79734375 3.50578125 -1.2421875 2.4140625 C-0.83226562 1.61742187 -0.42234375 0.82078125 0 0 Z " fill="#E8C528" transform="translate(155,260)"/>
<path d="M0 0 C2.11434065 3.17151097 3.01955937 5.86432861 4.125 9.5 C4.47820312 10.6446875 4.83140625 11.789375 5.1953125 12.96875 C6 16 6 16 6 19 C5.01 18.67 4.02 18.34 3 18 C3.020625 17.278125 3.04125 16.55625 3.0625 15.8125 C3.00179441 13.08074862 2.60741465 10.65743909 2 8 C1.34 8 0.68 8 0 8 C0 5.36 0 2.72 0 0 Z " fill="#826938" transform="translate(297,226)"/>
<path d="M0 0 C1.32 0.33 2.64 0.66 4 1 C2.89966185 2.60679516 1.79457336 4.21033793 0.6875 5.8125 C0.07261719 6.70582031 -0.54226562 7.59914062 -1.17578125 8.51953125 C-2.67715037 10.56100746 -4.14785401 12.28462787 -6 14 C-6 12.68 -6 11.36 -6 10 C-5.34 10 -4.68 10 -4 10 C-3.67 8.35 -3.34 6.7 -3 5 C-2.01 4.67 -1.02 4.34 0 4 C0 2.68 0 1.36 0 0 Z " fill="#7B653D" transform="translate(93,147)"/>
<path d="M0 0 C7.26 1.32 14.52 2.64 22 4 C22 4.33 22 4.66 22 5 C13.87873098 5.2643451 7.24116182 5.05505062 0 1 C0 0.67 0 0.34 0 0 Z " fill="#876C34" transform="translate(214,478)"/>
<path d="M0 0 C2.88501148 1.44250574 3.26887815 3.39702388 4.5625 6.3125 C4.99691406 7.27800781 5.43132812 8.24351562 5.87890625 9.23828125 C6.79916161 11.50525177 7.49559222 13.61398118 8 16 C7.01 15.67 6.02 15.34 5 15 C5 14.01 5 13.02 5 12 C4.34 12 3.68 12 3 12 C2.49166409 10.75336669 1.99368855 9.50250613 1.5 8.25 C1.2215625 7.55390625 0.943125 6.8578125 0.65625 6.140625 C0 4 0 4 0 0 Z " fill="#EDC924" transform="translate(308,364)"/>
<path d="M0 0 C0.66 0 1.32 0 2 0 C3.80304155 5.30094216 5.50723624 10.60308488 7 16 C6.34 16 5.68 16 5 16 C5 15.01 5 14.02 5 13 C4.01 12.67 3.02 12.34 2 12 C1.34 8.04 0.68 4.08 0 0 Z " fill="#836C38" transform="translate(68,344)"/>
<path d="M0 0 C-0.969375 0.433125 -1.93875 0.86625 -2.9375 1.3125 C-6.27731765 2.7014861 -6.27731765 2.7014861 -7 6 C-7.66 6 -8.32 6 -9 6 C-9 5.01 -9 4.02 -9 3 C-11.31 3.33 -13.62 3.66 -16 4 C-13.41588269 2.27725513 -11.45097344 1.31104478 -8.5625 0.3125 C-7.41974609 -0.09548828 -7.41974609 -0.09548828 -6.25390625 -0.51171875 C-3.78170279 -1.04729142 -2.37016716 -0.80445309 0 0 Z " fill="#EDC723" transform="translate(215,68)"/>
<path d="M0 0 C1.65 0.33 3.3 0.66 5 1 C4.23925157 2.62974564 3.46601567 4.25366648 2.6875 5.875 C2.04361328 7.23238281 2.04361328 7.23238281 1.38671875 8.6171875 C0 11 0 11 -3 13 C-3 11.68 -3 10.36 -3 9 C-2.34 9 -1.68 9 -1 9 C-1 8.01 -1 7.02 -1 6 C-0.34 6 0.32 6 1 6 C0.67 4.02 0.34 2.04 0 0 Z " fill="#7D6540" transform="translate(204,401)"/>
<path d="M0 0 C0.33 0.66 0.66 1.32 1 2 C-0.86482115 6.66205289 -3.38549883 9.57573573 -7 13 C-7.33 13.66 -7.66 14.32 -8 15 C-8.66 14.67 -9.32 14.34 -10 14 C-6.7 9.38 -3.4 4.76 0 0 Z " fill="#E5C428" transform="translate(143,283)"/>
<path d="M0 0 C0.33 0 0.66 0 1 0 C1.3540919 6.51791392 1.03901852 11.17521449 -2 17 C-3.44715727 13.12813552 -2.5441918 10.1767672 -1.5625 6.25 C-1.27503906 5.07953125 -0.98757812 3.9090625 -0.69140625 2.703125 C-0.46324219 1.81109375 -0.23507813 0.9190625 0 0 Z " fill="#816639" transform="translate(156,143)"/>
<path d="M0 0 C1.7936743 1.1217963 3.5848773 2.24754483 5.375 3.375 C6.37273437 4.00148438 7.37046875 4.62796875 8.3984375 5.2734375 C11 7 11 7 13 9 C10.36 8.67 7.72 8.34 5 8 C5 7.01 5 6.02 5 5 C4.01 5 3.02 5 2 5 C1.34 3.35 0.68 1.7 0 0 Z " fill="#7D643D" transform="translate(411,404)"/>
<path d="M0 0 C0.66 0.33 1.32 0.66 2 1 C1.34 1.721875 0.68 2.44375 0 3.1875 C-2.1535853 6.21597933 -2.41176754 7.39703406 -2 11 C-4.09749995 8.64031256 -4.96905704 7.45383006 -5.1875 4.25 C-5.125625 3.5075 -5.06375 2.765 -5 2 C-2.625 0.9375 -2.625 0.9375 0 0 Z " fill="#E9C822" transform="translate(75,342)"/>
<path d="M0 0 C1.10844919 3.32534757 0.84454356 5.62182575 0 9 C-0.66 9 -1.32 9 -2 9 C-2.144375 9.78375 -2.28875 10.5675 -2.4375 11.375 C-3 14 -3 14 -4 16 C-4.66 16 -5.32 16 -6 16 C-4.25192871 10.53262809 -2.34205919 5.24175152 0 0 Z " fill="#866B36" transform="translate(137,211)"/>
<path d="M0 0 C0.66 0 1.32 0 2 0 C2.66 2.31 3.32 4.62 4 7 C4.66 7 5.32 7 6 7 C6.33 9.64 6.66 12.28 7 15 C3.49221789 10.79066147 0 5.5744558 0 0 Z " fill="#E7C429" transform="translate(405,220)"/>
<path d="M0 0 C1.79378179 2.69067269 2.97313958 5.08578257 4.1875 8.0625 C4.55230469 8.94035156 4.91710937 9.81820312 5.29296875 10.72265625 C6 13 6 13 5 15 C3.02 11.535 3.02 11.535 1 8 C0.34 8 -0.32 8 -1 8 C-0.67 5.36 -0.34 2.72 0 0 Z " fill="#826A38" transform="translate(189,210)"/>
<path d="M0 0 C0.66 0 1.32 0 2 0 C1.40984815 5.50808397 0.43336231 10.64878069 -1 16 C-1.33 16 -1.66 16 -2 16 C-2.20413361 10.26157749 -2.27141454 5.39460953 0 0 Z " fill="#F3CC23" transform="translate(247,192)"/>
<path d="M0 0 C0.66 0 1.32 0 2 0 C2.53251766 1.91345327 3.05059483 3.8309295 3.5625 5.75 C3.85253906 6.81734375 4.14257812 7.8846875 4.44140625 8.984375 C4.97098494 11.84335927 4.98370862 13.31597383 4 16 C4 15.01 4 14.02 4 13 C3.34 13 2.68 13 2 13 C1.855625 11.865625 1.71125 10.73125 1.5625 9.5625 C1.38828522 6.19222799 1.38828522 6.19222799 0 5 C-0.04063832 3.33382885 -0.042721 1.66611905 0 0 Z " fill="#816A36" transform="translate(287,192)"/>
<path d="M0 0 C0.66 0 1.32 0 2 0 C0.63408831 3.54243452 -0.90931484 6.92627929 -2.625 10.3125 C-3.07101563 11.19550781 -3.51703125 12.07851562 -3.9765625 12.98828125 C-4.31429687 13.65214844 -4.65203125 14.31601563 -5 15 C-5.33 15 -5.66 15 -6 15 C-6 13.02 -6 11.04 -6 9 C-5.34 9 -4.68 9 -4 9 C-4 8.01 -4 7.02 -4 6 C-3.34 6 -2.68 6 -2 6 C-2 5.01 -2 4.02 -2 3 C-1.34 3 -0.68 3 0 3 C0 2.01 0 1.02 0 0 Z " fill="#7E663B" transform="translate(85,161)"/>
<path d="M0 0 C0.33 1.32 0.66 2.64 1 4 C0.34 4 -0.32 4 -1 4 C-0.938125 5.1446875 -0.938125 5.1446875 -0.875 6.3125 C-1 9 -1 9 -3 12 C-3.66 12 -4.32 12 -5 12 C-5 12.99 -5 13.98 -5 15 C-5.66 15 -6.32 15 -7 15 C-5.63408831 11.45756548 -4.09068516 8.07372071 -2.375 4.6875 C-1.70597656 3.36298828 -1.70597656 3.36298828 -1.0234375 2.01171875 C-0.68570312 1.34785156 -0.34796875 0.68398438 0 0 Z " fill="#856E34" transform="translate(460,365)"/>
<path d="M0 0 C2.12075567 3.18113351 3.06017176 5.92004956 4.1875 9.5625 C4.55230469 10.71878906 4.91710937 11.87507813 5.29296875 13.06640625 C6 16 6 16 5 18 C2.51342837 15.0569892 1.48719389 12.78289906 0.8125 9 C0.65394531 8.154375 0.49539063 7.30875 0.33203125 6.4375 C0 4 0 4 0 0 Z " fill="#E0BE2C" transform="translate(285,302)"/>
<path d="M0 0 C1.80411967 2.75924185 2.0127245 3.88972103 1.625 7.25 C1.41875 8.1575 1.2125 9.065 1 10 C-1.31 10.33 -3.62 10.66 -6 11 C-6 10.34 -6 9.68 -6 9 C-4.68 9.33 -3.36 9.66 -2 10 C-2 8.68 -2 7.36 -2 6 C-1.34 6 -0.68 6 0 6 C0 4.02 0 2.04 0 0 Z " fill="#7D6547" transform="translate(482,288)"/>
<path d="M0 0 C1.32 0.33 2.64 0.66 4 1 C4 2.65 4 4.3 4 6 C4.66 6 5.32 6 6 6 C8.125 10.625 8.125 10.625 7 14 C5.82807953 12.04480616 4.6626071 10.0857461 3.5 8.125 C2.8503125 7.03445312 2.200625 5.94390625 1.53125 4.8203125 C0 2 0 2 0 0 Z " fill="#7E6739" transform="translate(451,161)"/>
<path d="M0 0 C0.66 0 1.32 0 2 0 C2 0.66 2 1.32 2 2 C2.66 2 3.32 2 4 2 C6.27678571 8.96428571 6.27678571 8.96428571 5 13 C4.15930585 11.39967863 3.32768495 9.79458829 2.5 8.1875 C1.80390625 6.84751953 1.80390625 6.84751953 1.09375 5.48046875 C0 3 0 3 0 0 Z " fill="#7E633C" transform="translate(383,259)"/>
<path d="M0 0 C1.36420006 4.09260018 -0.2335485 6.47012659 -1.9375 10.1875 C-2.22818359 10.84169922 -2.51886719 11.49589844 -2.81835938 12.16992188 C-3.53695343 13.78381344 -4.2673588 15.39243655 -5 17 C-5.33 17 -5.66 17 -6 17 C-6 15.02 -6 13.04 -6 11 C-5.34 11 -4.68 11 -4 11 C-3.79503906 10.37351563 -3.59007812 9.74703125 -3.37890625 9.1015625 C-3.10949219 8.28429687 -2.84007812 7.46703125 -2.5625 6.625 C-2.29566406 5.81289062 -2.02882812 5.00078125 -1.75390625 4.1640625 C-1 2 -1 2 0 0 Z " fill="#ECC827" transform="translate(233,244)"/>
<path d="M0 0 C2.50719458 2.32649587 4.32183601 4.82681521 6.1875 7.6875 C6.71730469 8.49574219 7.24710937 9.30398437 7.79296875 10.13671875 C8.39044922 11.05904297 8.39044922 11.05904297 9 12 C8.67 12.66 8.34 13.32 8 14 C7.34 12.68 6.68 11.36 6 10 C5.34 10 4.68 10 4 10 C2 7 2 7 2 4 C1.34 4 0.68 4 0 4 C0 2.68 0 1.36 0 0 Z " fill="#826836" transform="translate(411,235)"/>
<path d="M0 0 C0.33 0 0.66 0 1 0 C1 1.98 1 3.96 1 6 C-0.98 6.99 -0.98 6.99 -3 8 C-3 8.99 -3 9.98 -3 11 C-3.99 11.33 -4.98 11.66 -6 12 C-4.43358249 7.69235185 -2.31663844 3.93828536 0 0 Z " fill="#82683B" transform="translate(128,231)"/>
<path d="M0 0 C0.33 0 0.66 0 1 0 C1 2.97 1 5.94 1 9 C0.34 9 -0.32 9 -1 9 C-1 10.98 -1 12.96 -1 15 C-1.66 15 -2.32 15 -3 15 C-2.44854729 9.76119922 -1.57077907 5.02649303 0 0 Z " fill="#826C35" transform="translate(150,171)"/>
<path d="M0 0 C0 2.97 0 5.94 0 9 C-2 6 -2 6 -2 4 C-3.98 4.33 -5.96 4.66 -8 5 C-3.16129032 0 -3.16129032 0 0 0 Z " fill="#EECB26" transform="translate(159,91)"/>
<path d="M0 0 C-0.639375 0.103125 -1.27875 0.20625 -1.9375 0.3125 C-2.618125 0.539375 -3.29875 0.76625 -4 1 C-4.33 1.99 -4.66 2.98 -5 4 C-7.97 4 -10.94 4 -14 4 C-11.37350692 2.24900461 -9.38191413 1.30690675 -6.4375 0.3125 C-5.65246094 0.04050781 -4.86742187 -0.23148437 -4.05859375 -0.51171875 C-2 -1 -2 -1 0 0 Z " fill="#846A36" transform="translate(346,472)"/>
<path d="M0 0 C0.66 0.33 1.32 0.66 2 1 C0.85821872 2.66944521 -0.28852905 4.3354948 -1.4375 6 C-2.07558594 6.928125 -2.71367187 7.85625 -3.37109375 8.8125 C-3.90863281 9.534375 -4.44617188 10.25625 -5 11 C-5.33 11 -5.66 11 -6 11 C-6.2519555 7.97653399 -6.20421041 6.3597993 -4.6875 3.6875 C-4.130625 3.130625 -3.57375 2.57375 -3 2 C-2.01 2 -1.02 2 0 2 C0 1.34 0 0.68 0 0 Z " fill="#80673E" transform="translate(199,415)"/>
<path d="M0 0 C0.66 0.33 1.32 0.66 2 1 C-0.31 4.96 -2.62 8.92 -5 13 C-6 10 -6 10 -5.0625 7.8125 C-4.711875 7.214375 -4.36125 6.61625 -4 6 C-3.34 6 -2.68 6 -2 6 C-2 4.35 -2 2.7 -2 1 C-1.34 0.67 -0.68 0.34 0 0 Z " fill="#EAC928" transform="translate(453,375)"/>
<path d="M0 0 C2.87255066 2.42195448 3.70838919 4.59742703 4.6875 8.1875 C4.93886719 9.08855469 5.19023437 9.98960937 5.44921875 10.91796875 C5.63097656 11.60503906 5.81273437 12.29210937 6 13 C2.50586395 10.13301658 0.71163126 8.15849852 0.1875 3.6875 C0.125625 2.470625 0.06375 1.25375 0 0 Z " fill="#E8C724" transform="translate(171,256)"/>
<path d="M0 0 C1.66285211 3.32570422 -0.01920148 6.68360945 -0.9375 10.125 C-1.13279297 10.87910156 -1.32808594 11.63320312 -1.52929688 12.41015625 C-2.01323358 14.27508306 -2.50580769 16.13776459 -3 18 C-3.33 18 -3.66 18 -4 18 C-3.91239411 15.93673023 -3.80420727 13.8743284 -3.6875 11.8125 C-3.62949219 10.66394531 -3.57148437 9.51539063 -3.51171875 8.33203125 C-2.97745494 4.85319896 -2.0052674 2.85468362 0 0 Z " fill="#876D32" transform="translate(64,212)"/>
<path d="M0 0 C0.94314127 3.41610225 1.08065117 6.45134864 1 10 C0.01 10.33 -0.98 10.66 -2 11 C-2.33 12.65 -2.66 14.3 -3 16 C-4.49828872 12.11764181 -3.43110582 9.56550712 -2.0625 5.75 C-1.68222656 4.67234375 -1.30195312 3.5946875 -0.91015625 2.484375 C-0.45962891 1.25460938 -0.45962891 1.25460938 0 0 Z " fill="#E8C529" transform="translate(69,198)"/>
<path d="M0 0 C0.66 0 1.32 0 2 0 C3.13764351 4.26616316 4 7.56486311 4 12 C3.34 12 2.68 12 2 12 C1.87625 11.030625 1.7525 10.06125 1.625 9.0625 C1.41875 8.051875 1.2125 7.04125 1 6 C0.34 5.67 -0.32 5.34 -1 5 C-0.67 3.35 -0.34 1.7 0 0 Z " fill="#7E683B" transform="translate(387,174)"/>
<path d="M0 0 C3.83520308 3.28731693 6.32465344 7.25147171 8 12 C7.67 12.66 7.34 13.32 7 14 C6.67 13.01 6.34 12.02 6 11 C5.34 11 4.68 11 4 11 C3.71125 10.030625 3.4225 9.06125 3.125 8.0625 C2.35785318 4.89335797 2.35785318 4.89335797 0 4 C0 2.68 0 1.36 0 0 Z " fill="#E6C428" transform="translate(449,160)"/>
<path d="M0 0 C0.66 0 1.32 0 2 0 C2.6875 1.6875 2.6875 1.6875 3 4 C1.75 6.75 1.75 6.75 0 9 C-0.99 9 -1.98 9 -3 9 C-2.01 6.03 -1.02 3.06 0 0 Z " fill="#EFCA1E" transform="translate(161,245)"/>
<path d="M0 0 C0.33 0.66 0.66 1.32 1 2 C0.109375 4.12890625 0.109375 4.12890625 -1.25 6.5625 C-1.68828125 7.36816406 -2.1265625 8.17382812 -2.578125 9.00390625 C-4 11 -4 11 -7 12 C-5.44298069 7.32894208 -2.91552627 3.91294315 0 0 Z " fill="#E4C629" transform="translate(96,148)"/>
<path d="M0 0 C1.65 0 3.3 0 5 0 C2.19195732 2.96404505 -0.18315774 5.44499019 -4 7 C-4 6.01 -4 5.02 -4 4 C-3.01 4 -2.02 4 -1 4 C-0.67 2.68 -0.34 1.36 0 0 Z " fill="#7C6540" transform="translate(132,105)"/>
<path d="M0 0 C2.64 0.33 5.28 0.66 8 1 C8 1.66 8 2.32 8 3 C9.65 3.33 11.3 3.66 13 4 C13 4.66 13 5.32 13 6 C8.31479085 4.78184562 4.29456388 3.30440013 0 1 C0 0.67 0 0.34 0 0 Z " fill="#8A6D38" transform="translate(352,76)"/>
<path d="M0 0 C0.66 0.33 1.32 0.66 2 1 C1.67 1.66 1.34 2.32 1 3 C2.32 3.66 3.64 4.32 5 5 C0.94568308 6.15837626 -1.21812119 5.83691257 -5 4 C-3.73293765 1.46587529 -2.59334288 1.02161992 0 0 Z " fill="#76634A" transform="translate(165,456)"/>
<path d="M0 0 C2.31 0.66 4.62 1.32 7 2 C7 2.66 7 3.32 7 4 C7.99 4.33 8.98 4.66 10 5 C9.67 5.99 9.34 6.98 9 8 C7.49712782 6.85793642 5.99776716 5.71125043 4.5 4.5625 C3.6646875 3.92441406 2.829375 3.28632813 1.96875 2.62890625 C1.3190625 2.09136719 0.669375 1.55382812 0 1 C0 0.67 0 0.34 0 0 Z " fill="#E4C427" transform="translate(396,392)"/>
<path d="M0 0 C0.33 1.32 0.66 2.64 1 4 C0.34 4 -0.32 4 -1 4 C-1.33 5.65 -1.66 7.3 -2 9 C-2.66 9 -3.32 9 -4 9 C-4.66 10.32 -5.32 11.64 -6 13 C-6 9.32965255 -4.9247108 7.9000569 -3 4.8125 C-2.443125 3.91144531 -1.88625 3.01039063 -1.3125 2.08203125 C-0.6628125 1.05142578 -0.6628125 1.05142578 0 0 Z " fill="#E8C829" transform="translate(356,276)"/>
<path d="M0 0 C0.99 0.33 1.98 0.66 3 1 C1.25 6.75 1.25 6.75 -1 9 C-1.33 6.69 -1.66 4.38 -2 2 C-1.34 2 -0.68 2 0 2 C0 1.34 0 0.68 0 0 Z " fill="#786346" transform="translate(148,267)"/>
<path d="M0 0 C0.33 0 0.66 0 1 0 C1.1875 2.375 1.1875 2.375 1 5 C-1.61941217 6.74627478 -3.03824877 7.38722388 -6 8 C-5.67 6.35 -5.34 4.7 -5 3 C-4.360625 2.87625 -3.72125 2.7525 -3.0625 2.625 C-2.0415625 2.315625 -2.0415625 2.315625 -1 2 C-0.67 1.34 -0.34 0.68 0 0 Z " fill="#78644D" transform="translate(349,217)"/>
<path d="M0 0 C1.32 0.33 2.64 0.66 4 1 C2.35 2.98 0.7 4.96 -1 7 C-1.66 6.67 -2.32 6.34 -3 6 C-2.01 4.02 -1.02 2.04 0 0 Z " fill="#F3CC16" transform="translate(185,436)"/>
<path d="M0 0 C4.875 3.625 4.875 3.625 6 7 C3.03 6.505 3.03 6.505 0 6 C0 4.02 0 2.04 0 0 Z " fill="#7E6644" transform="translate(363,358)"/>
<path d="M0 0 C0.60546875 1.84375 0.60546875 1.84375 1 4 C-1.28222047 7.38106736 -4.06944646 10.17410909 -7 13 C-5.35821735 8.22390502 -2.73453298 4.20617096 0 0 Z " fill="#896D32" transform="translate(195,327)"/>
<path d="M0 0 C3.63559661 3.43361902 6.36113346 6.7973607 9 11 C8.01 10.67 7.02 10.34 6 10 C6 9.34 6 8.68 6 8 C4.68 7.67 3.36 7.34 2 7 C1.34 4.69 0.68 2.38 0 0 Z " fill="#EDC927" transform="translate(192,293)"/>
<path d="M0 0 C1.98 0 3.96 0 6 0 C5.67 2.31 5.34 4.62 5 7 C3.29115995 5.37660195 1.62553283 3.70680947 0 2 C0 1.34 0 0.68 0 0 Z " fill="#7C6445" transform="translate(399,288)"/>
<path d="M0 0 C1.13864162 3.41592487 0.84292788 4.21442309 -0.3125 7.5 C-0.57675781 8.2734375 -0.84101563 9.046875 -1.11328125 9.84375 C-2 12 -2 12 -4 15 C-3.67 12.03 -3.34 9.06 -3 6 C-2.34 6 -1.68 6 -1 6 C-0.67 4.02 -0.34 2.04 0 0 Z " fill="#E5C22E" transform="translate(238,229)"/>
<path d="M0 0 C0.66 0 1.32 0 2 0 C0.25740319 9.59453303 0.25740319 9.59453303 -3 13 C-2.67 10.03 -2.34 7.06 -2 4 C-1.34 4 -0.68 4 0 4 C0 2.68 0 1.36 0 0 Z " fill="#EFCA26" transform="translate(139,201)"/>
<path d="M0 0 C1.48828125 1.14453125 1.48828125 1.14453125 3 3 C3.29296875 5.69921875 3.29296875 5.69921875 3.1875 8.6875 C3.16042969 9.68136719 3.13335937 10.67523438 3.10546875 11.69921875 C3.07066406 12.45847656 3.03585938 13.21773437 3 14 C1.20724134 10.88089144 0.65709282 8.32317572 0.375 4.75 C0.30023438 3.85796875 0.22546875 2.9659375 0.1484375 2.046875 C0.09945312 1.37140625 0.05046875 0.6959375 0 0 Z " fill="#DBB92A" transform="translate(174,150)"/>
<path d="M0 0 C1.67542976 0.28604898 3.34385343 0.61781233 5 1 C3.35830472 3.02054804 1.69088222 5.02043058 0 7 C-0.33 7 -0.66 7 -1 7 C-1.04254356 5.00045254 -1.04080783 2.99958364 -1 1 C-0.67 0.67 -0.34 0.34 0 0 Z " fill="#F7D214" transform="translate(149,379)"/>
<path d="M0 0 C2.475 0.99 2.475 0.99 5 2 C4.01 2.66 3.02 3.32 2 4 C1.42006301 6.19454681 1.42006301 6.19454681 1.3125 8.625 C1.24675781 9.44226563 1.18101562 10.25953125 1.11328125 11.1015625 C1.07589844 11.72804688 1.03851563 12.35453125 1 13 C0.67 13 0.34 13 0 13 C0 8.71 0 4.42 0 0 Z " fill="#EECD2E" transform="translate(379,91)"/>
<path d="M0 0 C0.66 0.33 1.32 0.66 2 1 C-0.35968744 3.09749995 -1.54616994 3.96905704 -4.75 4.1875 C-5.86375 4.0946875 -5.86375 4.0946875 -7 4 C-7 4.66 -7 5.32 -7 6 C-8.32 5.67 -9.64 5.34 -11 5 C-9.730447 4.35165346 -8.45930294 3.70642185 -7.1875 3.0625 C-6.47980469 2.70285156 -5.77210938 2.34320313 -5.04296875 1.97265625 C-3 1 -3 1 0 0 Z " fill="#E8C429" transform="translate(184,77)"/>
<path d="M0 0 C2.97 0.495 2.97 0.495 6 1 C-1.5 6 -1.5 6 -6 6 C-6 5.34 -6 4.68 -6 4 C-4.7934375 3.566875 -4.7934375 3.566875 -3.5625 3.125 C-0.8673532 2.26737432 -0.8673532 2.26737432 0 0 Z " fill="#80693A" transform="translate(187,72)"/>
<path d="M0 0 C0.66 2.64 1.32 5.28 2 8 C-2.875 3.25 -2.875 3.25 -4 1 C-2 0 -2 0 0 0 Z " fill="#7C6343" transform="translate(356,434)"/>
<path d="M0 0 C0.66 0.33 1.32 0.66 2 1 C1.19185349 2.33597652 0.37836819 3.668725 -0.4375 5 C-0.88996094 5.7425 -1.34242188 6.485 -1.80859375 7.25 C-2.20175781 7.8275 -2.59492188 8.405 -3 9 C-3.33 9 -3.66 9 -4 9 C-4.25 6.1875 -4.25 6.1875 -4 3 C-2 1.125 -2 1.125 0 0 Z " fill="#F1CD21" transform="translate(193,328)"/>
<path d="M0 0 C0.33 0.99 0.66 1.98 1 3 C-1.33333333 5.33333333 -3.66666667 7.66666667 -6 10 C-6.66 9.67 -7.32 9.34 -8 9 C-5.36 6.03 -2.72 3.06 0 0 Z " fill="#E5C22B" transform="translate(132,298)"/>
<path d="M0 0 C2.23960447 2.87949147 4.29864224 5.76742026 6 9 C5.67 9.66 5.34 10.32 5 11 C4.01 10.34 3.02 9.68 2 9 C2 7.68 2 6.36 2 5 C1.34 5 0.68 5 0 5 C0 3.35 0 1.7 0 0 Z " fill="#EAC828" transform="translate(387,270)"/>
<path d="M0 0 C0.33 0 0.66 0 1 0 C1.43200679 4.75207471 -0.01510917 7.78210698 -2 12 C-2.66 12 -3.32 12 -4 12 C-3.52309796 10.37433394 -3.04340334 8.74948689 -2.5625 7.125 C-2.29566406 6.22007812 -2.02882812 5.31515625 -1.75390625 4.3828125 C-1 2 -1 2 0 0 Z " fill="#806A35" transform="translate(236,239)"/>
<path d="M0 0 C1.18414294 3.55242882 0.69535532 4.69830562 -0.4375 8.1875 C-0.72496094 9.08855469 -1.01242187 9.98960937 -1.30859375 10.91796875 C-1.53675781 11.60503906 -1.76492188 12.29210937 -2 13 C-3.37302582 8.88092254 -2.74706646 6.27865333 -2 2 C-1.34 1.34 -0.68 0.68 0 0 Z " fill="#E9C32B" transform="translate(357,179)"/>
<path d="M0 0 C0 1.32 0 2.64 0 4 C-1.32 4.33 -2.64 4.66 -4 5 C-4.99 3.68 -5.98 2.36 -7 1 C-2.25 0 -2.25 0 0 0 Z " fill="#76614D" transform="translate(420,114)"/>
<path d="M0 0 C1.32 0 2.64 0 4 0 C4.66 2.64 5.32 5.28 6 8 C1.125 3.375 1.125 3.375 0 0 Z " fill="#7F663F" transform="translate(346,427)"/>
<path d="M0 0 C2.4375 0.625 2.4375 0.625 5 2 C5.8125 5.125 5.8125 5.125 6 8 C1.125 3.375 1.125 3.375 0 0 Z " fill="#836C37" transform="translate(335,412)"/>
<path d="M0 0 C1.65 0 3.3 0 5 0 C5.33 0.66 5.66 1.32 6 2 C3.69 3.32 1.38 4.64 -1 6 C-1 5.34 -1 4.68 -1 4 C-0.34 4 0.32 4 1 4 C0.67 2.68 0.34 1.36 0 0 Z " fill="#7E6542" transform="translate(97,325)"/>
<path d="M0 0 C2.94721162 2.74395564 5.19168608 5.38337216 7 9 C6.67 9.66 6.34 10.32 6 11 C2.6433715 8.76224766 2.42003986 8.06679952 1.3125 4.375 C1.06113281 3.55773437 0.80976563 2.74046875 0.55078125 1.8984375 C0.36902344 1.27195313 0.18726563 0.64546875 0 0 Z " fill="#E3C22B" transform="translate(442,149)"/>
<path d="M0 0 C0.103125 0.639375 0.20625 1.27875 0.3125 1.9375 C0.539375 2.618125 0.76625 3.29875 1 4 C1.99 4.33 2.98 4.66 4 5 C2 6 2 6 0.0546875 5.44140625 C-0.66460937 5.15136719 -1.38390625 4.86132812 -2.125 4.5625 C-2.84945312 4.27503906 -3.57390625 3.98757813 -4.3203125 3.69140625 C-5.15175781 3.34916016 -5.15175781 3.34916016 -6 3 C-6 2.67 -6 2.34 -6 2 C-4.02 2 -2.04 2 0 2 C0 1.34 0 0.68 0 0 Z " fill="#EFCA24" transform="translate(190,465)"/>
<path d="M0 0 C0.99 0.33 1.98 0.66 3 1 C3 1.66 3 2.32 3 3 C3.99 2.67 4.98 2.34 6 2 C6.33 3.98 6.66 5.96 7 8 C1.125 3.375 1.125 3.375 0 0 Z " fill="#806938" transform="translate(358,442)"/>
<path d="M0 0 C2.625 0.375 2.625 0.375 5 1 C3.515 3.475 3.515 3.475 2 6 C1.34 5.01 0.68 4.02 0 3 C-0.66 2.67 -1.32 2.34 -2 2 C-1.34 1.34 -0.68 0.68 0 0 Z " fill="#766449" transform="translate(180,435)"/>
<path d="M0 0 C0.97591583 3.38317487 0.85856655 5.5657338 0 9 C-0.66 9 -1.32 9 -2 9 C-2.33 9.99 -2.66 10.98 -3 12 C-4 10 -4 10 -3.22265625 7.6171875 C-2.83980469 6.71226562 -2.45695313 5.80734375 -2.0625 4.875 C-1.68222656 3.96492187 -1.30195313 3.05484375 -0.91015625 2.1171875 C-0.60980469 1.41851562 -0.30945313 0.71984375 0 0 Z " fill="#8B7032" transform="translate(231,251)"/>
<path d="M0 0 C2.84880302 4.27320453 4.28990619 6.78168857 4 12 C2 11 2 11 0.875 7.6875 C0 4 0 4 0 0 Z " fill="#907533" transform="translate(271,244)"/>
<path d="M0 0 C0.625 1.875 0.625 1.875 1 4 C0.34 4.66 -0.32 5.32 -1 6 C-3.125 5.625 -3.125 5.625 -5 5 C-3.35 3.35 -1.7 1.7 0 0 Z " fill="#81663D" transform="translate(164,370)"/>
<path d="M0 0 C3.44216672 2.6598561 3.99504674 5.90288286 5 10 C4.01 9.67 3.02 9.34 2 9 C2 7.35 2 5.7 2 4 C1.34 4 0.68 4 0 4 C0 2.68 0 1.36 0 0 Z " fill="#806936" transform="translate(77,365)"/>
<path d="M0 0 C0.33 0 0.66 0 1 0 C1.25 3.3125 1.25 3.3125 1 7 C-0.32 7.99 -1.64 8.98 -3 10 C-2.01 6.7 -1.02 3.4 0 0 Z " fill="#EAC525" transform="translate(236,347)"/>
<path d="M0 0 C0.99 0.33 1.98 0.66 3 1 C1.37660195 2.70884005 -0.29319053 4.37446717 -2 6 C-2.66 6 -3.32 6 -4 6 C-3.67 4.68 -3.34 3.36 -3 2 C-2.01 2 -1.02 2 0 2 C0 1.34 0 0.68 0 0 Z " fill="#836B39" transform="translate(113,315)"/>
<path d="M0 0 C1.65 0 3.3 0 5 0 C5 1.98 5 3.96 5 6 C3.31237149 4.3545622 1.6459651 2.68711423 0 1 C0 0.67 0 0.34 0 0 Z " fill="#7B6543" transform="translate(409,301)"/>
<path d="M0 0 C0.33 0 0.66 0 1 0 C0.74438677 2.3431213 0.40729228 4.67843403 0 7 C-0.99 7.495 -0.99 7.495 -2 8 C-2.66 7.34 -3.32 6.68 -4 6 C-2.69593116 3.98079663 -1.36176581 1.98075027 0 0 Z " fill="#7F6A3D" transform="translate(332,245)"/>
<path d="M0 0 C1.99097846 2.98646769 2.94124926 5.59687262 4 9 C2.68 8.67 1.36 8.34 0 8 C0 5.36 0 2.72 0 0 Z " fill="#7F683E" transform="translate(404,220)"/>
<path d="M0 0 C1.60080151 4.00200378 0.29279692 7.04556236 -1 11 C-1.33 11 -1.66 11 -2 11 C-2.25 3.375 -2.25 3.375 0 0 Z " fill="#EBC827" transform="translate(147,178)"/>
<path d="M0 0 C2 1.375 2 1.375 4 3 C4 3.66 4 4.32 4 5 C2.02 5.66 0.04 6.32 -2 7 C-2 6.34 -2 5.68 -2 5 C-1.01 5 -0.02 5 1 5 C0.67 3.35 0.34 1.7 0 0 Z " fill="#E7C630" transform="translate(368,454)"/>
<path d="M0 0 C0.33 0 0.66 0 1 0 C1 1.65 1 3.3 1 5 C-0.32 5.33 -1.64 5.66 -3 6 C-2.42655063 3.13275314 -2.1385485 2.1385485 0 0 Z " fill="#836947" transform="translate(158,376)"/>
<path d="M0 0 C3.36591866 1.44253657 5.51047079 3.33264727 8 6 C5.69 5.34 3.38 4.68 1 4 C0.67 2.68 0.34 1.36 0 0 Z " fill="#E9C924" transform="translate(426,320)"/>
<path d="M0 0 C0.99 0.33 1.98 0.66 3 1 C0.525 4.465 0.525 4.465 -2 8 C-2.33 6.68 -2.66 5.36 -3 4 C-1.5625 1.75 -1.5625 1.75 0 0 Z " fill="#826638" transform="translate(348,285)"/>
<path d="M0 0 C1.98 0.495 1.98 0.495 4 1 C2.69593116 3.01920337 1.36176581 5.01924973 0 7 C-0.33 7 -0.66 7 -1 7 C-0.67 4.69 -0.34 2.38 0 0 Z " fill="#F0CE1F" transform="translate(322,255)"/>
</svg>
