<?xml version="1.0" standalone="no"?>
<!DOCTYPE svg PUBLIC "-//W3C//DTD SVG 20010904//EN"
 "http://www.w3.org/TR/2001/REC-SVG-20010904/DTD/svg10.dtd">
<svg version="1.0" xmlns="http://www.w3.org/2000/svg"
 width="540.000000pt" height="540.000000pt" viewBox="0 0 540.000000 540.000000"
 preserveAspectRatio="xMidYMid meet">
<metadata>
Created by potrace 1.16, written by Peter Selinger 2001-2019
</metadata>
<g transform="translate(0.000000,540.000000) scale(0.100000,-0.100000)"
fill="#000000" stroke="none">
<path d="M0 2700 l0 -2700 2700 0 2700 0 0 2700 0 2700 -2700 0 -2700 0 0
-2700z m2636 1973 c-17 -357 -24 -440 -52 -663 -41 -331 -101 -622 -185 -893
-51 -163 -152 -407 -168 -407 -11 0 -89 100 -136 174 -52 81 -149 278 -189
384 -125 326 -190 678 -203 1086 l-6 206 99 46 c240 112 547 188 782 193 l64
1 -6 -127z m304 116 c214 -26 465 -98 647 -184 l93 -44 0 -123 c-2 -548 -126
-1078 -345 -1468 -64 -115 -171 -263 -186 -258 -15 5 -83 164 -138 322 -152
442 -254 1072 -264 1634 l-2 132 55 0 c31 0 94 -5 140 -11z m-1347 -411 c-5
-156 -30 -378 -59 -537 -125 -677 -430 -1163 -871 -1385 -40 -20 -74 -36 -77
-36 -22 0 -23 402 -1 556 88 598 414 1121 910 1459 44 30 85 55 91 55 7 0 9
-37 7 -112z m2303 50 c229 -158 417 -350 570 -582 212 -323 327 -678 349
-1076 5 -103 -6 -334 -17 -346 -9 -8 -141 61 -228 119 -100 67 -291 260 -366
372 -216 319 -347 719 -399 1215 -11 111 -21 322 -16 353 2 15 20 6 107 -55z
m-2211 -1503 c63 -181 179 -384 304 -532 34 -40 61 -78 61 -84 0 -21 -88 -173
-172 -300 -201 -301 -461 -564 -707 -714 l-63 -39 -39 44 c-119 138 -241 333
-320 511 -49 111 -59 149 -38 149 20 0 143 61 209 103 313 200 539 479 673
833 19 49 37 98 41 108 9 27 19 13 51 -79z m1019 73 c3 -13 15 -72 27 -133 59
-306 182 -701 314 -1009 161 -378 380 -724 604 -958 41 -43 72 -80 70 -82 -2
-2 -40 -22 -84 -44 -504 -251 -1082 -290 -1620 -111 -108 36 -355 145 -355
157 0 3 35 41 78 86 228 239 444 588 617 997 111 262 235 667 290 939 14 74
28 145 31 158 2 12 9 22 14 22 5 0 12 -10 14 -22z m1065 -50 c13 -40 49 -128
81 -195 158 -331 431 -614 732 -756 43 -21 82 -37 87 -37 24 0 18 -26 -32
-137 -63 -142 -111 -228 -185 -337 -56 -83 -169 -226 -178 -226 -3 0 -33 16
-67 36 -169 99 -434 347 -590 551 -114 150 -287 429 -287 463 0 7 24 40 54 73
80 92 176 238 233 357 43 89 61 134 108 268 9 26 22 9 44 -60z"/>
</g>
</svg>
